<svg xmlns="http://www.w3.org/2000/svg" xmlns:xlink="http://www.w3.org/1999/xlink" width="240" height="108" viewBox="0 0 240 108">
  <defs>
    <clipPath id="clip-Artboard_3">
      <rect width="240" height="108"/>
    </clipPath>
  </defs>
  <g id="Artboard_3" data-name="Artboard – 3" clip-path="url(#clip-Artboard_3)">
    <g id="american-express" transform="translate(40.999 26.974)">
      <path id="Path_35" data-name="Path 35" d="M246.311,187.854a4.951,4.951,0,0,0-2.032-.254H239.2v4.063h5.079a4.951,4.951,0,0,0,2.032-.254,1.977,1.977,0,0,0,.762-1.778A1.412,1.412,0,0,0,246.311,187.854Z" transform="translate(-163.264 -180.235)" fill="#fff"/>
      <path id="Path_36" data-name="Path 36" d="M137.4,164.4v3.048l-1.524-3.048H123.937v3.048l-1.524-3.048H106.159a15.462,15.462,0,0,0-7.111,1.524V164.4H87.619v1.524a7.323,7.323,0,0,0-4.825-1.524H41.9l-2.794,6.349L36.317,164.4H23.365v3.048L21.841,164.4H10.921L5.841,176.337,0,189.543H12.952l1.524-4.063h3.556l1.524,4.063h14.73V186.5l1.27,3.048h7.365l1.27-3.048v3.048h35.3v-6.6H80c.508,0,.508,0,.508.762v5.587H98.794v-1.524a15.214,15.214,0,0,0,6.857,1.524h7.619l1.524-4.064h3.556l1.524,4.064H134.6v-3.81l2.286,3.81h11.937V164.4ZM51.556,185.733H47.238V171.765l-6.1,13.968h-3.81l-6.1-13.968v13.968H22.6l-1.778-3.81H12.19l-1.524,4.063H5.841l7.619-18.032H19.81l7.111,17.016V167.956h6.857l5.587,12.19,5.079-12.19h7.111Zm17.27-13.968h-9.9v3.3h9.651v3.556H58.921v3.556h9.9v3.809H54.6V167.956H68.825Zm19.048,7.365a6.354,6.354,0,0,1,.762,3.3v3.556H84.317V183.7a6.05,6.05,0,0,0-.762-3.556c-.762-.762-1.524-.762-3.048-.762H75.936v6.6H71.619V167.956H81.27c2.286,0,3.81,0,5.079.762a4.327,4.327,0,0,1,2.032,4.063,4.63,4.63,0,0,1-3.027,4.552A4.976,4.976,0,0,1,87.873,179.13Zm7.619,6.6H91.175V167.7h4.317Zm50.032,0h-6.1l-8.127-13.46v13.46h-8.635l-1.524-3.81h-8.889l-1.524,4.063H105.9c-2.032,0-4.571-.508-6.1-2.032s-2.286-3.556-2.286-6.857a10.41,10.41,0,0,1,2.286-7.111c1.27-1.524,3.556-2.032,6.349-2.032h4.063v3.81h-4.063a4.683,4.683,0,0,0-3.3,1.016,5.964,5.964,0,0,0-1.27,4.063c0,2.032.254,3.3,1.27,4.317a4.048,4.048,0,0,0,3.048,1.016h1.778l5.841-13.968h6.349l7.111,17.016V168.21h6.349l7.365,12.444V168.21h4.317v17.524Z" transform="translate(0 -164.4)" fill="#fff"/>
      <g id="Group_5" data-name="Group 5" transform="translate(64 6.603)">
        <path id="Path_37" data-name="Path 37" d="M358.4,192.311h5.841l-2.794-7.111Z" transform="translate(-308.622 -185.2)" fill="#fff"/>
        <path id="Path_38" data-name="Path 38" d="M208.2,291.676V277.2l-6.6,7.111Z" transform="translate(-201.6 -247.994)" fill="#fff"/>
      </g>
      <path id="Path_39" data-name="Path 39" d="M136.8,282.8v3.3h9.4v3.556h-9.4v3.81h10.413l4.825-5.333-4.571-5.333Z" transform="translate(-93.371 -245.213)" fill="#fff"/>
      <path id="SVGCleanerId_0" d="M241.333,282.8H236v4.571h5.587c1.524,0,2.54-.762,2.54-2.286A2.561,2.561,0,0,0,241.333,282.8Z" transform="translate(-161.079 -245.213)" fill="#fff"/>
      <path id="Path_40" data-name="Path 40" d="M234.629,271.829V260.4H223.962a8.333,8.333,0,0,0-5.333,1.524V260.4H206.946c-1.778,0-4.063.508-5.079,1.524V260.4H181.3v1.524c-1.524-1.27-4.317-1.524-5.587-1.524H161.994v1.524c-1.27-1.27-4.317-1.524-5.841-1.524H140.914l-3.556,3.81-3.3-3.81H111.2v24.889h22.349l3.556-3.81,3.3,3.81h13.714v-5.841H155.9a15.45,15.45,0,0,0,5.841-.762v6.857h11.429v-6.6h.508c.762,0,.762,0,.762.762v5.841h34.54a9.957,9.957,0,0,0,5.841-1.524v1.524H225.74c2.286,0,4.571-.254,6.1-1.27h0a8.646,8.646,0,0,0,4.063-7.619A9.726,9.726,0,0,0,234.629,271.829Zm-78.73,4.063h-5.079v6.1h-8.127l-5.117-5.837-5.3,5.837H115.517V263.956h17.016l5.079,5.841,5.333-5.841h13.46c3.3,0,7.111,1.016,7.111,5.841C163.263,274.876,159.708,275.892,155.9,275.892Zm25.4-1.016a5.763,5.763,0,0,1,.762,3.3v3.556H177.74v-2.286c0-1.016,0-2.794-.762-3.556-.508-.762-1.524-.762-3.048-.762h-4.571v6.6h-4.317V263.7h9.651c2.032,0,3.81,0,5.079.762a4.492,4.492,0,0,1,2.286,4.063,5.056,5.056,0,0,1-3.048,4.825A4.344,4.344,0,0,1,181.3,274.876Zm17.524-7.365h-9.9v3.3h9.651v3.556h-9.651v3.556h9.9v3.81H184.6V263.7h14.222Zm10.667,14.222h-8.127v-3.81h8.127a2.143,2.143,0,0,0,1.778-.508,1.841,1.841,0,0,0,0-2.54,2.147,2.147,0,0,0-1.524-.508c-4.064-.254-8.889,0-8.889-5.587,0-2.54,1.524-5.333,6.1-5.333h8.381v4.317h-7.873a3.766,3.766,0,0,0-1.778.254c-.508.254-.508.762-.508,1.27,0,.762.508,1.016,1.016,1.27a3.222,3.222,0,0,0,1.524.254h2.286c2.286,0,3.81.508,4.825,1.524a5.257,5.257,0,0,1,1.27,3.81C216.089,279.956,213.8,281.733,209.486,281.733Zm21.841-1.778a7.406,7.406,0,0,1-5.333,1.778h-8.127v-3.81h8.127a2.143,2.143,0,0,0,1.778-.508,1.841,1.841,0,0,0,0-2.54,2.147,2.147,0,0,0-1.524-.508c-4.063-.254-8.889,0-8.889-5.587,0-2.54,1.524-5.333,6.1-5.333h8.381v4.317h-7.619a3.766,3.766,0,0,0-1.778.254c-.508.254-.508.762-.508,1.27,0,.762.254,1.016,1.016,1.27a3.221,3.221,0,0,0,1.524.254h2.286c2.286,0,3.81.508,4.825,1.524a1.331,1.331,0,0,1,.34.438,7.137,7.137,0,0,1,.93,3.371A5.169,5.169,0,0,1,231.327,279.956Z" transform="translate(-75.898 -229.924)" fill="#fff"/>
      <path id="SVGCleanerId_1" d="M302.311,283.854a4.951,4.951,0,0,0-2.032-.254H295.2v4.063h5.079a4.951,4.951,0,0,0,2.032-.254,1.977,1.977,0,0,0,.762-1.778A1.412,1.412,0,0,0,302.311,283.854Z" transform="translate(-201.486 -245.759)" fill="#fff"/>
      <g id="Group_7" data-name="Group 7" transform="translate(74.921 37.587)">
        <path id="SVGCleanerId_0_1_" d="M241.333,282.8H236v4.571h5.587c1.524,0,2.54-.762,2.54-2.286A2.561,2.561,0,0,0,241.333,282.8Z" transform="translate(-236 -282.8)" fill="#fff"/>
      </g>
      <g id="Group_8" data-name="Group 8" transform="translate(93.714 37.841)">
        <path id="SVGCleanerId_1_1_" d="M302.311,283.854a4.951,4.951,0,0,0-2.032-.254H295.2v4.063h5.079a4.951,4.951,0,0,0,2.032-.254,1.977,1.977,0,0,0,.762-1.778A1.412,1.412,0,0,0,302.311,283.854Z" transform="translate(-295.2 -283.6)" fill="#fff"/>
      </g>
      <g id="Group_9" data-name="Group 9" transform="translate(0 0)">
        <path id="Path_44" data-name="Path 44" d="M154.482,277.586l-3.808-3.885v4.318h-8.381l-5.079-5.841-5.587,5.841H114.864V260.241H131.88l5.584,5.821,2.289-3.027-6.359-7.127h-22.37l.031,25.667H133.4l3.81-3.81,3.3,3.81,14,.018Z" transform="translate(-75.753 -226.209)" fill="#fff"/>
        <path id="Path_45" data-name="Path 45" d="M52.063,189.289l-3.3-3.556H47.238V184.21l-3.81-3.81-2.54,5.333H37.333l-6.1-13.968v13.968H22.6l-1.778-3.81H12.19l-1.778,3.81H5.841l7.619-17.778H19.81l7.111,17.016V167.956h3.81L27.175,164.4h-3.81v3.048L22.1,164.4H10.921L5.841,176.337,0,189.289H13.206l1.524-3.81h3.556l1.778,3.81H34.286v-3.048l1.27,3.048h7.365l1.27-3.048v3.048Z" transform="translate(0 -164.4)" fill="#fff"/>
        <path id="Path_46" data-name="Path 46" d="M118.463,197.263,114.4,193.2l3.048,6.6Z" transform="translate(-78.083 -184.057)" fill="#fff"/>
      </g>
      <g id="Group_10" data-name="Group 10" transform="translate(25.143 0.254)">
        <path id="Path_47" data-name="Path 47" d="M275.5,282.381a9.29,9.29,0,0,0,4.064-6.857l-3.556-3.556a7.514,7.514,0,0,1,.508,2.54,5.168,5.168,0,0,1-1.524,3.809,7.406,7.406,0,0,1-5.333,1.778h-8.127v-3.81h8.127a2.143,2.143,0,0,0,1.778-.508,1.841,1.841,0,0,0,0-2.54,2.147,2.147,0,0,0-1.524-.508c-4.063-.254-8.889,0-8.889-5.587,0-2.54,1.524-4.825,5.333-5.333l-2.479-2.414a6.557,6.557,0,0,1-1.33.68V258H250.864c-1.778,0-4.063.508-5.079,1.524V258H224.96v1.524c-1.524-1.27-4.317-1.524-5.587-1.524H205.658v1.524c-1.27-1.27-4.317-1.524-5.841-1.524H184.579l-3.556,3.81L178.269,258h-3.23l7.508,7.619,3.81-4.064h13.46c3.3,0,7.111,1.016,7.111,5.841,0,5.079-3.556,6.1-7.365,6.1h-5.079v3.81l3.81,3.81V277.3h1.27a15.45,15.45,0,0,0,5.841-.762V283.4h11.429v-6.6h.508c.762,0,.762,0,.762.762V283.4h34.54a9.958,9.958,0,0,0,5.841-1.524V283.4H269.4a10.076,10.076,0,0,0,6.1-1.016Zm-50.54-9.143a5.762,5.762,0,0,1,.762,3.3V280.1H221.4V277.81c0-1.016,0-2.794-.762-3.556-.508-.762-1.524-.762-3.048-.762h-4.571v6.6h-4.317V262.064h9.651c2.032,0,3.81,0,5.079.762a4.492,4.492,0,0,1,2.286,4.063,5.056,5.056,0,0,1-3.048,4.825A4.343,4.343,0,0,1,224.96,273.238Zm17.524-7.365h-9.9v3.3h9.651v3.556h-9.651v3.556h9.9v3.81H228.261V262.064h14.222ZM253.15,280.1h-8.127v-3.81h8.127a2.143,2.143,0,0,0,1.778-.508,1.841,1.841,0,0,0,0-2.54,2.147,2.147,0,0,0-1.524-.508c-4.063-.254-8.889,0-8.889-5.587,0-2.54,1.524-5.333,6.1-5.333h8.381v4.317h-7.873a3.766,3.766,0,0,0-1.778.254c-.508.254-.508.762-.508,1.27,0,.762.508,1.016,1.016,1.27a3.221,3.221,0,0,0,1.524.254h2.286c2.286,0,3.81.508,4.825,1.524a5.257,5.257,0,0,1,1.27,3.81C259.753,278.317,257.468,280.1,253.15,280.1Z" transform="translate(-144.706 -228.54)" fill="#fff"/>
        <path id="Path_48" data-name="Path 48" d="M459.2,285.124c0,.762.254,1.016,1.016,1.27a3.221,3.221,0,0,0,1.524.254h2.286a8.461,8.461,0,0,1,3.782.6l-4.036-3.652h-2.286a3.766,3.766,0,0,0-1.778.254A1.94,1.94,0,0,0,459.2,285.124Z" transform="translate(-338.565 -246.013)" fill="#fff"/>
        <path id="Path_49" data-name="Path 49" d="M431.2,240.4l.508.762h.254Z" transform="translate(-319.454 -216.527)" fill="#fff"/>
        <path id="Path_50" data-name="Path 50" d="M387.2,196.4l4.075,10.574v-6.292Z" transform="translate(-289.422 -186.495)" fill="#fff"/>
        <path id="Path_51" data-name="Path 51" d="M133.549,183.486h.508c.508,0,.508,0,.508.762v5.587h18.286v-1.524a15.214,15.214,0,0,0,6.857,1.524h7.619l1.524-4.064h3.556l1.524,4.064h14.73V187.3l-3.32-3.461v2.7h-8.87l-1.27-4.064h-8.889l-1.524,4.064h-4.825c-2.032,0-4.571-.508-6.1-2.032s-2.286-3.556-2.286-6.857a10.41,10.41,0,0,1,2.286-7.111c1.27-1.524,3.556-2.032,6.349-2.032h4.063v3.81h-4.063a4.683,4.683,0,0,0-3.3,1.016,5.964,5.964,0,0,0-1.27,4.063c0,2.032.254,3.3,1.27,4.317a4.048,4.048,0,0,0,3.048,1.016h1.778l5.841-13.968h2.54l-3.556-3.556h-6.6a15.462,15.462,0,0,0-7.111,1.524V165.2H141.676v1.524a7.322,7.322,0,0,0-4.825-1.524H95.962l-2.794,6.349L90.375,165.2H79.2l3.751,3.3h4.888l4.313,9.655,1.235,2.569,4.86-12.22h7.111v18.032h-4.317l.248-14.2-4.565,10.393,7.365,7.365H133.3ZM145.232,168.5h4.317v18.032h-4.317Zm-22.349,3.81h-9.9v3.3h9.651v3.556h-9.651v3.556h9.9v3.81H108.66V168.5h14.222Zm7.111,13.968h-4.317V168.248h9.651c2.286,0,3.81,0,5.079.762a4.328,4.328,0,0,1,2.032,4.063,5.056,5.056,0,0,1-3.048,4.825,3.325,3.325,0,0,1,2.032,1.524,6.354,6.354,0,0,1,.762,3.3v3.556h-4.317v-2.286a6.05,6.05,0,0,0-.762-3.556c-.254-.508-1.016-.508-2.54-.508h-4.571v6.349Z" transform="translate(-79.2 -165.2)" fill="#fff"/>
      </g>
      <path id="Path_20482" data-name="Path 20482" d="M43.2,192.311h5.587L45.994,185.2Z" transform="translate(-29.486 -178.77)" fill="#fff"/>
    </g>
  </g>
</svg>
