<svg xmlns="http://www.w3.org/2000/svg" xmlns:xlink="http://www.w3.org/1999/xlink" width="240" height="108" viewBox="0 0 240 108">
  <defs>
    <clipPath id="clip-Artboard_12">
      <rect width="240" height="108"/>
    </clipPath>
  </defs>
  <g id="Artboard_12" data-name="Artboard – 12" clip-path="url(#clip-Artboard_12)">
    <g id="Layer_x0020_1" transform="translate(23.767 35.498)">
      <g id="_2946209773872" transform="translate(0)">
        <g id="Group_19986" data-name="Group 19986">
          <path id="Path_111195" data-name="Path 111195" d="M16131.729,6473.874v-11.307c0-1.552-.186-4.007.371-5.272a3.827,3.827,0,0,1,3.66-2.007c4.641.116,3.861,4.4,3.861,7.4v11.192h5.945v-12.8c0-2.35-.164-3.848,1.436-4.992a4.616,4.616,0,0,1,4.941-.145,2.872,2.872,0,0,1,1.469,1.756c.422,1.2.23,7.835.23,9.37,0,1.75-.373,4.589.627,5.788,1.17,1.4,3.131,1.03,5.322,1.034v-10.618c0-3.223.172-6.765-1.453-9.145-2.727-4-10.848-4.7-14.711-2.072a3.763,3.763,0,0,1-.762.487,11.488,11.488,0,0,0-5.865-2.062,14.019,14.019,0,0,0-6.914,1.042c-1.574-1-1.791-.717-4.287-.717v23.077Z" transform="translate(-15965.137 -6444.198)" fill="#fff" fill-rule="evenodd"/>
          <path id="Path_111196" data-name="Path 111196" d="M2113.22,6463.178c3.8-.695,5.464,2.4,5.672,5.788.231,3.683-.619,7.193-3.917,7.778-3.835.681-5.624-2.411-5.811-5.826C2108.963,6467.156,2109.935,6463.774,2113.22,6463.178Zm-9.955,7.048c0,11.387,9.227,13.575,13.832,10.26a8.264,8.264,0,0,0,1.773-1.916,66.691,66.691,0,0,1,.056,7.2c0,1.273-.088,2.167.684,3,1.326,1.429,2.572,1.08,5.188,1.081v-31.508h-3.684a2.981,2.981,0,0,0-2.188.722,13.177,13.177,0,0,0-4.606-1.042c-3.576,0-6.7,1.028-8.467,3.046-2.083,2.38-2.587,5.434-2.587,9.158Z" transform="translate(-2082.344 -6451.741)" fill="#fff" fill-rule="evenodd"/>
          <path id="Path_111197" data-name="Path 111197" d="M10070.344,5858.251v-11.539c-.008-8.149,6.645-7.842,8.6-4.708a7.717,7.717,0,0,1,1.087,4.709c-.01,3.83-.01,7.664,0,11.532h5.769v-10.618c0-3.417.188-6.522-1.6-8.928a9.041,9.041,0,0,0-6.733-3.881,8.613,8.613,0,0,0-4.436.89c-1.584.811-1.808,1.563-2.68,2.475-.028-1.5.177-6.541-.177-7.572-.854-2.514-3.55-1.984-5.729-1.986v29.617Z" transform="translate(-9964.3 -5828.577)" fill="#fff" fill-rule="evenodd"/>
          <path id="Path_111198" data-name="Path 111198" d="M12358.767,6461.608c-.231-4.671,5.284-5.9,7.6-3.342a5.071,5.071,0,0,1,1.065,3.358Zm14.887,3.856a15.227,15.227,0,0,0-1.756-9.045,9.187,9.187,0,0,0-6.558-4.261c-7.194-1.212-11.6,2.651-12.531,8.807-1.042,6.906,1.357,12.811,6.822,14.4,5.662,1.647,12.655-.957,13.715-7.041-1.349,0-4.388-.246-5.352.331-1.3.781-1.174,1.768-3.448,2.082-3.836.53-5.965-1.726-5.776-5.243Z" transform="translate(-12229.652 -6445.721)" fill="#fff" fill-rule="evenodd"/>
          <path id="Path_111199" data-name="Path 111199" d="M8.728,6469.407a2.981,2.981,0,0,1-3.084-1.68A2.883,2.883,0,0,1,6.7,6464.35c1.784-1.2,5.12-1.04,7.051-2.191l.037,2.255a4.613,4.613,0,0,1-4.95,4.99Zm-2.267-12.8a2.394,2.394,0,0,1,2.046-1.5c4.759-1.05,7.061,2.172,3.492,3.6-4.025,1.613-8.16.423-10.65,3.63-2.121,2.735-1.747,8.5,1.268,10.5a9.84,9.84,0,0,0,5.883,1.237,13.087,13.087,0,0,0,5.872-1.142c.373.177.429.388.936.579a16.365,16.365,0,0,0,4.094.106c-.009-4.067,0-8.126,0-12.187,0-4.48.611-7.407-2.483-9.568-3.4-2.377-15.273-3.323-16.271,4.754H6.46Z" transform="translate(-0.007 -6443.977)" fill="#fff" fill-rule="evenodd"/>
          <path id="Path_111200" data-name="Path 111200" d="M6689.409,6461.986c.287,2.336-.161,5.154-1.545,6.173-3.094,2.275-7.925.82-6.535-2.733C6682.325,6462.878,6685.892,6463.6,6689.409,6461.986Zm-7.545-5.556c.407-.141.213-.088.486-.463,1.273-1.721,6.7-1.825,6.983.57.424,3.609-9.431,1.768-12.339,5.588-1.917,2.517-1.969,8.309,1.215,10.488,2.894,1.986,8.8,1.485,11.834.134a2.813,2.813,0,0,0,2.187.726h2.815c-.008-4.037,0-8.077,0-12.11,0-4.311.57-7.673-2.475-9.665-4.038-2.638-15.41-2.99-16.274,4.735Z" transform="translate(-6609.233 -6443.794)" fill="#fff" fill-rule="evenodd"/>
          <path id="Path_111201" data-name="Path 111201" d="M4482.121,6500.319c0,5.9,2.6,9.261,8.565,9.261,4.2,0,4.912-1.221,5.884-.755,1.279.611,3.767.384,5.516.384v-23.076c-2.4,0-4.027-.362-5.241,1a3.147,3.147,0,0,0-.707,2.475c0,2.022.17,11.5-.188,12.749-.939,3.271-6.229,3.271-7.387.442-.517-1.266-.331-3.842-.33-5.355v-11.274l-6.115-.033Z" transform="translate(-4437.522 -6479.534)" fill="#fff" fill-rule="evenodd"/>
          <path id="Path_111202" data-name="Path 111202" d="M8897.191,5858.546l3.3-.073v-4.458c-1.659-.219-3.535.507-3.535-1.65v-12.552a3.126,3.126,0,0,0,2.979-1.165,4.681,4.681,0,0,0,.553-2.943l-3.536-.037c0-2.894.525-5.527-1.735-6.554a12.6,12.6,0,0,0-4.21-.2v17.924C8891.011,5856.4,8889.724,5858.553,8897.191,5858.546Z" transform="translate(-8802.455 -5828.82)" fill="#fff" fill-rule="evenodd"/>
          <path id="Path_111203" data-name="Path 111203" d="M14627.459,6503.665v-6.011c0-4.066-.758-7.907,2.127-9.851,1.525-1.027,2.871-.879,4.746-1.126v-6.046a14.773,14.773,0,0,0-7.771,1.263,8.626,8.626,0,0,0-4.229,4.764c-1.02,2.511-1,5.112-1,8v9Z" transform="translate(-14475.834 -6473.991)" fill="#fff" fill-rule="evenodd"/>
        </g>
      </g>
    </g>
  </g>
</svg>
