<svg xmlns="http://www.w3.org/2000/svg" xmlns:xlink="http://www.w3.org/1999/xlink" width="240" height="108" viewBox="0 0 240 108">
  <defs>
    <clipPath id="clip-Artboard_2">
      <rect width="240" height="108"/>
    </clipPath>
  </defs>
  <g id="Artboard_2" data-name="Artboard – 2" clip-path="url(#clip-Artboard_2)">
    <g id="audi" transform="translate(48 29.974)">
      <g id="Group_4" data-name="Group 4">
        <g id="Group_2" data-name="Group 2" transform="translate(0 0.076)">
          <path id="Path_5" data-name="Path 5" d="M74.873,89.5a24.565,24.565,0,1,0,24.565,24.565A24.565,24.565,0,0,0,74.873,89.5Zm0,43.479a18.914,18.914,0,1,1,18.914-18.914A18.914,18.914,0,0,1,74.873,132.979Z" transform="translate(-50.308 -89.5)" fill="#fff"/>
          <path id="Path_6" data-name="Path 6" d="M75.809,93.334A21.667,21.667,0,1,0,97.477,115,21.667,21.667,0,0,0,75.809,93.334Zm0,40.689A19.022,19.022,0,1,1,94.831,115,19.021,19.021,0,0,1,75.809,134.023Z" transform="translate(-51.244 -90.436)" fill="#fff"/>
        </g>
        <path id="Path_7" data-name="Path 7" d="M97.477,115A21.667,21.667,0,1,1,75.809,93.334,21.668,21.668,0,0,1,97.477,115Z" transform="translate(-51.244 -90.36)" fill="none"/>
        <path id="Path_8" data-name="Path 8" d="M201.212,89.5a24.565,24.565,0,1,0,24.566,24.565A24.565,24.565,0,0,0,201.212,89.5Zm0,43.479a18.914,18.914,0,1,1,18.916-18.914A18.914,18.914,0,0,1,201.212,132.979Z" transform="translate(-81.154 -89.424)" fill="#fff"/>
        <path id="Path_9" data-name="Path 9" d="M202.148,93.334A21.667,21.667,0,1,0,223.815,115,21.668,21.668,0,0,0,202.148,93.334Zm0,40.689A19.022,19.022,0,1,1,221.17,115,19.023,19.023,0,0,1,202.148,134.023Z" transform="translate(-82.09 -90.36)" fill="#fff"/>
        <path id="Path_11" data-name="Path 11" d="M116.873,132.979a18.83,18.83,0,0,1-11.814-4.148h-4.048v3.985a24.542,24.542,0,0,0,31.813-.077v-3.908h-4.137A18.83,18.83,0,0,1,116.873,132.979ZM100.984,95.338v4.075h3.93a18.911,18.911,0,0,1,23.919,0h4.018v-4a24.539,24.539,0,0,0-31.867-.077Zm-8.676,18.727a24.457,24.457,0,0,0,4.867,14.679h3.794V124.3a18.9,18.9,0,0,1,0-20.465v-4.4H97.145A24.451,24.451,0,0,0,92.308,114.065ZM136.579,99.4H132.9v4.625a18.316,18.316,0,0,1-.169,20.008v4.918l4.221-.117a25.514,25.514,0,0,0-.372-29.434Z" transform="translate(-60.562 -89.424)" fill="#fff"/>
        <path id="Path_13" data-name="Path 13" d="M155.633,117.262a24.3,24.3,0,0,1-4.877,14.668h.192a24.666,24.666,0,0,0,0-29.336h-.192A24.3,24.3,0,0,1,155.633,117.262Z" transform="translate(-74.833 -92.621)" fill="#fff"/>
        <path id="Path_16" data-name="Path 16" d="M135.363,141.536a21.5,21.5,0,0,1-31.359,0h-.182v.138a21.734,21.734,0,0,0,31.813-.094v-.044Z" transform="translate(-63.374 -102.129)" fill="#fff"/>
        <path id="Path_17" data-name="Path 17" d="M119.675,89.551a24.3,24.3,0,0,1,15.978,5.939v-.2a24.62,24.62,0,0,0-31.867-.076v.2A24.3,24.3,0,0,1,119.675,89.551Z" transform="translate(-63.365 -89.4)" fill="#fff"/>
        <path id="Path_18" data-name="Path 18" d="M119.684,152.489a24.3,24.3,0,0,1-15.862-5.837v.2a24.621,24.621,0,0,0,31.813-.076v-.2A24.3,24.3,0,0,1,119.684,152.489Z" transform="translate(-63.374 -103.359)" fill="#fff"/>
        <path id="Path_19" data-name="Path 19" d="M92.359,117.272a24.3,24.3,0,0,1,4.853-14.637H97.02a24.664,24.664,0,0,0,.032,29.316h.193A24.3,24.3,0,0,1,92.359,117.272Z" transform="translate(-60.538 -92.631)" fill="#fff"/>
        <g id="Group_3" data-name="Group 3" transform="translate(63.431)">
          <path id="Path_20" data-name="Path 20" d="M158.895,132.979a18.834,18.834,0,0,1-11.815-4.148h-4.048v3.985a24.544,24.544,0,0,0,31.814-.077v-3.908h-4.138A18.832,18.832,0,0,1,158.895,132.979ZM143.005,95.338l-.089,3.926,4.018.149a18.911,18.911,0,0,1,23.919,0h4.02v-4a24.541,24.541,0,0,0-31.869-.077Zm-8.676,18.727a24.45,24.45,0,0,0,4.52,14.766l4.183.124v-4.965a17.324,17.324,0,0,1,.133-19.831l.081-4.9-4.264.105A24.48,24.48,0,0,0,134.329,114.065ZM178.6,99.4h-3.68v4.625a18.9,18.9,0,0,1,0,20.086v4.625h3.68a24.567,24.567,0,0,0,0-29.336Z" transform="translate(-134.253 -89.424)" fill="#fff"/>
          <path id="Path_21" data-name="Path 21" d="M159.831,134.023a18.938,18.938,0,0,1-11.988-4.255H143.98a21.655,21.655,0,0,0,31.7,0h-3.863A18.938,18.938,0,0,1,159.831,134.023ZM138.163,115A21.586,21.586,0,0,0,143.9,129.68h.029v-4.248a19.009,19.009,0,0,1,0-20.863v-4.206h-.07A21.587,21.587,0,0,0,138.163,115Zm21.668-21.667a21.6,21.6,0,0,0-15.889,6.942v.073H147.7a19.023,19.023,0,0,1,24.261,0h3.829A21.609,21.609,0,0,0,159.831,93.334Zm16.026,7.085v4.341a19,19,0,0,1,0,20.483v4.341a21.667,21.667,0,0,0,0-29.165Z" transform="translate(-135.189 -90.36)" fill="#fff"/>
          <path id="Path_22" data-name="Path 22" d="M190.847,118.708a18.711,18.711,0,0,1-2.814,9.909v.281a19,19,0,0,0,0-20.381v.282A18.709,18.709,0,0,1,190.847,118.708Z" transform="translate(-147.365 -94.068)" fill="#fff"/>
          <path id="Path_23" data-name="Path 23" d="M197.656,117.262a24.3,24.3,0,0,1-4.877,14.668h.192a24.663,24.663,0,0,0,0-29.336h-.192A24.3,24.3,0,0,1,197.656,117.262Z" transform="translate(-148.524 -92.621)" fill="#fff"/>
          <path id="Union_2" data-name="Union 2" d="M5.7,36.459A21.739,21.739,0,0,1,5.665,7.143h.212v.1a21.51,21.51,0,0,0,0,29.063v.148Zm32.1-.011v-.273a21.507,21.507,0,0,0,0-28.79V7.112h.06a21.737,21.737,0,0,1,0,29.336Zm-.237-29.32a21.51,21.51,0,0,0-31.579,0h-.1V6.905A21.737,21.737,0,0,1,37.761,7v.129Z" transform="translate(2.86 2.86)" fill="#fff"/>
          <path id="Path_27" data-name="Path 27" d="M174.914,141.536h-.246a18.828,18.828,0,0,1-23.392,0h-.245a18.992,18.992,0,0,0,23.882,0Z" transform="translate(-138.331 -102.129)" fill="#fff"/>
          <path id="Path_28" data-name="Path 28" d="M161.7,89.551a24.305,24.305,0,0,1,15.979,5.939v-.2a24.622,24.622,0,0,0-31.869-.076v.2A24.3,24.3,0,0,1,161.7,89.551Z" transform="translate(-137.056 -89.4)" fill="#fff"/>
          <path id="Path_29" data-name="Path 29" d="M161.706,152.489a24.3,24.3,0,0,1-15.862-5.837v.2a24.623,24.623,0,0,0,31.814-.076v-.2A24.3,24.3,0,0,1,161.706,152.489Z" transform="translate(-137.065 -103.359)" fill="#fff"/>
          <path id="Path_30" data-name="Path 30" d="M134.381,117.272a24.3,24.3,0,0,1,4.853-14.637h-.191a24.661,24.661,0,0,0,.032,29.316h.193A24.294,24.294,0,0,1,134.381,117.272Z" transform="translate(-134.229 -92.631)" fill="#fff"/>
          <path id="Path_31" data-name="Path 31" d="M144.791,128.747a18.847,18.847,0,0,1,0-20.2v-.282a19.007,19.007,0,0,0,0,20.765Z" transform="translate(-136.054 -94.006)" fill="#fff"/>
          <path id="Path_32" data-name="Path 32" d="M150.845,101.214h.24a18.843,18.843,0,0,1,23.685,0h.24a19,19,0,0,0-24.164,0Z" transform="translate(-138.286 -91.225)" fill="#fff"/>
        </g>
        <path id="Path_33" data-name="Path 33" d="M134.7,105.676v.282a18.708,18.708,0,0,1,2.813,9.908,18.942,18.942,0,0,1-2.908,9.951v.358a19.344,19.344,0,0,0,3.059-10.309A18.854,18.854,0,0,0,134.7,105.676Zm-16.025,29.03a18.694,18.694,0,0,1-11.7-4.073h-.245a18.989,18.989,0,0,0,23.88,0h-.245A18.694,18.694,0,0,1,118.674,134.705Zm-15.9-8.457v-.282a18.847,18.847,0,0,1,0-20.2v-.282a19.007,19.007,0,0,0,0,20.765Zm3.822-25.034h.24a18.841,18.841,0,0,1,23.684,0h.24a18.994,18.994,0,0,0-24.164,0Z" transform="translate(-62.363 -91.225)" fill="#fff"/>
      </g>
    </g>
  </g>
</svg>
