<svg xmlns="http://www.w3.org/2000/svg" xmlns:xlink="http://www.w3.org/1999/xlink" width="240" height="108" viewBox="0 0 240 108">
  <defs>
    <clipPath id="clip-Artboard_1">
      <rect width="240" height="108"/>
    </clipPath>
  </defs>
  <g id="Artboard_1" data-name="Artboard – 1" clip-path="url(#clip-Artboard_1)">
    <g id="axa" transform="translate(66.351 29.955)">
      <path id="Path_39" data-name="Path 39" d="M-747.251,1293.6l7.982-10.748s.752,3.442,1.3,5.624c.5,2.008,1.383,5.124,1.383,5.124Zm-26.932,26.854,5.8.022,15.612-20.4h18.192l2.865,7.712L-742,1320.448h9.095l3.693-5.68a17.341,17.341,0,0,1,1.3,2.524,17.556,17.556,0,0,1,.66,3.425h9.852l3.742-5.054a17.435,17.435,0,0,1,1.232,2.775c.406,1.3.65,2.278.65,2.278h11.968l-1.626-2.768-4.484-12.71,3.915-5.2h17.338l5.947,17.671a3.239,3.239,0,0,1,.163,1.628,7.786,7.786,0,0,0-.163,1.383h12.54a19.943,19.943,0,0,1-1.3-2.685c-.835-2.145-13.35-43.653-13.35-43.653l-.163-2.2H-691.26s-.416,1.159-.737,1.88c-2.444,5.45-16.364,22.8-16.364,22.8l-1.385-5.217,15.558-19.38h-10.025l-.083,1.139-8.623,11.641-3.508-11.154v-1.626h-11.644l7.333,21.578L-723.92,1298l-7.323-23.7v-2.033h-10.341a9.472,9.472,0,0,1-.976,2.848c-1.339,3.087-25.031,33.531-31.623,41.976v3.362Zm52.542-15.458,3.333-4.163,2.2,6.359-3.635,4.467-1.894-6.663Zm24.432-11.4,7.985-10.748s.752,3.442,1.3,5.624c.5,2.008,1.383,5.124,1.383,5.124Z" transform="translate(774.183 -1272.183)" fill="#fff" fill-rule="evenodd"/>
    </g>
  </g>
</svg>
