<svg xmlns="http://www.w3.org/2000/svg" xmlns:xlink="http://www.w3.org/1999/xlink" width="240" height="108" viewBox="0 0 240 108">
  <defs>
    <clipPath id="clip-Artboard_18">
      <rect width="240" height="108"/>
    </clipPath>
  </defs>
  <g id="Artboard_18" data-name="Artboard – 18" clip-path="url(#clip-Artboard_18)">
    <g id="logo" transform="translate(10 29.333)">
      <path id="XMLID_6_" d="M9.388,6.576l7.6,2.578-1.214,6.093L5.239,11.677,7.83,7.193a1.182,1.182,0,0,1,1.558-.617Z" transform="translate(1.879 2.334)" fill="#fff" fill-rule="evenodd"/>
      <path id="XMLID_5_" d="M.524,22.264l6.634-5.819L12.3,20.952l-9.2,8.07L.257,24.089a1.3,1.3,0,0,1,.267-1.825Z" transform="translate(0.003 5.901)" fill="#fff" fill-rule="evenodd"/>
      <path id="XMLID_4_" d="M9.649,38.528l-1.9-9.522,7.12-2.413,2.63,13.2H11.24a1.432,1.432,0,0,1-1.591-1.265Z" transform="translate(2.779 9.534)" fill="#fff" fill-rule="evenodd"/>
      <path id="XMLID_3_" d="M29.8,38.132,19.689,34.7,21.3,26.589l14.02,4.754L31.877,37.31a1.568,1.568,0,0,1-2.077.822Z" transform="translate(7.052 9.534)" fill="#fff" fill-rule="evenodd"/>
      <path id="XMLID_2_" d="M40.489,20.849,31.659,28.6l-6.839-6L37.061,11.855l3.788,6.566a1.727,1.727,0,0,1-.36,2.428Z" transform="translate(8.889 4.257)" fill="#fff" fill-rule="evenodd"/>
      <path id="XMLID_1_" d="M28.756,1.681,31.28,14.354,21.8,17.567,18.3,0h8.338a1.907,1.907,0,0,1,2.118,1.681Z" transform="translate(6.555 0.013)" fill="#fff" fill-rule="evenodd"/>
      <path id="Path_116321" data-name="Path 116321" d="M65.008,33.09a15.344,15.344,0,0,1-7.3,1.824c-7.715,0-12.2-5.283-12.2-12.619,0-7.259,5.094-13.037,12.695-13.037a13.943,13.943,0,0,1,6.311,1.331v3.155a12.724,12.724,0,0,0-6.233-1.6c-5.777,0-9.2,4.41-9.2,10,0,5.815,3.458,9.881,8.968,9.881a12.17,12.17,0,0,0,6-1.634Z" transform="translate(16.297 3.328)" fill="#fff"/>
      <path id="Path_116322" data-name="Path 116322" d="M64.09,9.427H76.747L75.758,12.2H67.471v8.057h8.171v2.814H67.471V31.7H76.9v2.774H64.09Z" transform="translate(22.949 3.388)" fill="#fff"/>
      <path id="Path_116323" data-name="Path 116323" d="M77.633,9.427H80.9L92.229,24.174c1.482,1.9,2.546,3.421,3.383,4.674h.075c-.075-1.368-.075-2.584-.075-4.37V9.427H99V34.473H96.031L84.286,19.157c-1.406-1.824-2.432-3.269-3.307-4.524H80.9c.076,1.177.113,2.394.113,4.181V34.473H77.632V9.427Z" transform="translate(27.797 3.388)" fill="#fff"/>
      <path id="Path_116324" data-name="Path 116324" d="M108.665,24.349l-.989-2.776H118.09v11.4a19.624,19.624,0,0,1-8.475,1.939c-7.715,0-12.615-5.2-12.615-12.5,0-7.677,5.281-13.152,13.227-13.152a18.944,18.944,0,0,1,6.956,1.331v3.155a14.935,14.935,0,0,0-6.766-1.6c-6.309,0-9.844,4.1-9.844,9.957,0,6.083,3.611,9.92,9.388,9.92a11.639,11.639,0,0,0,4.79-.911v-6.76Z" transform="translate(34.73 3.327)" fill="#fff"/>
      <path id="Path_116325" data-name="Path 116325" d="M124.9,9.37h2.4l9.729,25.123h-3.61l-2.472-6.574h-9.691l-2.4,6.574h-3.535Zm5.018,15.773L127.562,18.6c-.722-2.127-1.1-3.267-1.407-4.18h-.075c-.268.913-.684,2.091-1.444,4.219l-2.356,6.5h7.638Z" transform="translate(41.291 3.368)" fill="#fff"/>
      <path id="Path_116326" data-name="Path 116326" d="M144.229,24.349l-.987-2.776h10.412v11.4a19.624,19.624,0,0,1-8.475,1.939c-7.716,0-12.619-5.207-12.619-12.5,0-7.677,5.283-13.152,13.227-13.152a18.922,18.922,0,0,1,6.953,1.331v3.155a14.915,14.915,0,0,0-6.764-1.6c-6.309,0-9.843,4.1-9.843,9.957,0,6.083,3.61,9.92,9.388,9.92a11.62,11.62,0,0,0,4.787-.911V24.349Z" transform="translate(47.462 3.327)" fill="#fff"/>
      <path id="Path_116327" data-name="Path 116327" d="M152.567,9.427h12.657l-.989,2.774h-8.287v8.057h8.171v2.814h-8.171V31.7h9.429v2.774h-12.81Z" transform="translate(54.626 3.388)" fill="#fff"/>
    </g>
  </g>
</svg>
