<svg xmlns="http://www.w3.org/2000/svg" xmlns:xlink="http://www.w3.org/1999/xlink" width="240" height="108" viewBox="0 0 240 108">
  <defs>
    <clipPath id="clip-Artboard_10">
      <rect width="240" height="108"/>
    </clipPath>
  </defs>
  <g id="Artboard_10" data-name="Artboard – 10" clip-path="url(#clip-Artboard_10)">
    <g id="disney" transform="translate(40 21.59)">
      <path id="Path_111137" data-name="Path 111137" d="M83.566,64.925a4.867,4.867,0,0,1,2.96,1.184,4.045,4.045,0,0,1,.887,4.263c-2.07,4.262-6.995,7.109-10.36,8.051a11.692,11.692,0,0,1-6.394-.241c-.888.533-1.639,2.254-2.723,1.539-1.57-1.227-.211-3.146-1.118-4.509-.187-.281-.658-.3-.895-.76-1.244-2.723.3-5.328,2.012-7.4,2.861-3.193,11.073-6.75,15.63-2.131Zm-9.531,2.131a7.857,7.857,0,0,0-4.38,2.131c-.977,1.139-1.6,2.247-1.006,3.434,2.073-1.539,3.079-3.67,5.387-4.975C74.035,67.411,74.391,67.233,74.035,67.056Zm9.651.593c-4.086-.356-7.164,2.723-10.065,5.683-.177.473-1.243,1.006-.414,1.539A13.434,13.434,0,0,0,83.687,71.5a2.622,2.622,0,0,0,1.007-2.842,2.093,2.093,0,0,0-1.008-1.008Zm35.4,17.642c1.895,4.618,3.493,11.9,0,16.34-.947,1.066-2.6,2.048-3.669,1.243-3.908-3.137-5.564-7.637-7.992-11.663-.355-.177-.355.3-.533.474-.887,4.084.77,9.413-2.012,12.609a2.131,2.131,0,0,1-2.427-1.42c-1.364-4.2.058-8.586.412-12.787.83-2.131,1.184-4.617,3.02-6.216,2.96,1.184,4.38,4.5,6.1,6.927a59.889,59.889,0,0,0,3.67,5.564c1.243-.533.632-2.157.593-3.137A77.176,77.176,0,0,0,113.7,82.153c-.058-.947-.59-2.546.414-3.137,2.664,1.184,3.787,3.966,4.972,6.275ZM101.208,83.87A2.459,2.459,0,0,1,99.9,86c-5.683.887-12.017.355-17.345,2.13-.177.651.592.77,1.006.947,4.557.71,9.354.887,13.794,2.013,2.348.6,3.2,3.375,3.375,5.684a6.047,6.047,0,0,1-2.368,5.269c-4.38,2.783-11.073,2.663-15.511.12-1.7-.952-3.316-2.487-3.434-4.38a3.539,3.539,0,0,1,1.717-3.256c4.263-1.717,9.531-.769,13.2,1.42.235,1.184-1.043,1.123-1.659,1.54-4.086,2.368-7.163-2.662-10.952-.83-.533.355-.918,1.346-.3,1.658,4.676,2.073,9.887.592,14.5-.71.533-.177,1.184-.71,1.243-1.243-.177-1.895-2.309-2.309-3.67-2.841-4.026-1.006-8.466-1.006-12.787-1.42a3.124,3.124,0,0,1-2.13-1.42,4.817,4.817,0,0,1,.592-4.559c5.505-4.855,13.852-4.44,20.838-3.137.474.174,1.007.351,1.185.883Zm-25.87,2.247a144.514,144.514,0,0,1,.71,16.931c-.119.769-1.006.947-1.6,1.243a2.97,2.97,0,0,1-2.546-.533c-1.364-2.191-.887-5.15-1.006-7.814.177-4.2.119-8.761,1.3-12.669.226-.568.887-1.066,1.42-.711,1.42.713,1.657,2.134,1.716,3.555Zm65.773-.829c.285.481.583,1.218,0,1.539-2.664,1.184-6.275.651-9.354,1.006a3.1,3.1,0,0,0-1.185,2.96c.3.177.562.448.89.413,1.893.12,4.734-.887,5.98.887.3.528-.041,2.5-.887,2.546-2.31.3-6.108-.29-7.222.3-1.42.947-1.3,2.782-1.836,4.263,1.007.651,2.061-.015,3.255-.178,2.192-.355,4.62-1.006,6.809-.533.414.77,1.007,1.6.592,2.546-3.732,2.96-8.546,5.994-13.675,3.852-1.926-.863-2.783-3.789-2.13-6.273.413-1.777,2.247-3.493,1.123-5.387a1.409,1.409,0,0,1,1.007-1.716c1.953,0,1.538-2.427,2.545-3.553-1.123-1.243-3.966-1.184-3.669-3.67,1.364-.71,3.02-.473,4.557-.71a35.853,35.853,0,0,1,10.955-.711c.705.14,1.653,1.536,2.245,2.424Zm-84.543-13.5C62.032,76.258,69.12,83.87,68.232,92.632c-1.066,6.927-8.407,12.137-14.623,13.794-6.039,1.776-13.616,1.6-19.774.177-.414,1.123-.829,2.487-2.13,2.96a2.779,2.779,0,0,1-2.546-.414c-1.835-1.717-.355-5.033-3.02-6.1-5.21-2.191-10.833-6.513-13.5-11.84a3.181,3.181,0,0,1,.71-2.959c4.086-3.256,9.236-4.559,14.387-5.566.3.119.177-.3.414-.414.3-3.552.414-7.164,1.539-10.361a.924.924,0,0,1,1.3-.3c3.256,2.488,1.716,7.164,3.137,10.537,6.216.3,12.433.592,17.346,4.086a5.39,5.39,0,0,1,1.539,5.447,4.528,4.528,0,0,1-3.852,2.662c-1.066,0-3.079.1-2.96-.709s3.621-2.146,2.546-3.257c-1.546-1.6-9.285-2.546-14.08-3.137-.592-.119-1.135.059-1.135.71-.119,4.5-.473,9.469.3,13.794a1.061,1.061,0,0,0,.711.709c8.466,1.364,17.4.592,24.036-4.262,3.079-2.487,4.086-5.98,3.552-9.827C59.467,77.652,48.278,71.2,39.1,67.054A64.755,64.755,0,0,0,9.684,61.669c-1.685.124-4.361.706-4.38,1.3s3.029.409,2.663,1.539-3.462.459-4.38.177-.829-1.6-.592-2.427C5.3,58.177,11.747,57.848,14.657,57.7A65.683,65.683,0,0,1,56.569,71.793ZM27.562,87.658a36.788,36.788,0,0,0-12.2,1.894c-.77.3-1.717,1.123-1.123,2.131a19.6,19.6,0,0,0,5.8,4.975c2.062,1.2,4.8,2.723,7.283,3.08a68.711,68.711,0,0,0,.533-11.6C27.621,88.014,27.858,87.777,27.562,87.658Zm122.369-5.387c-.177,5.15-4.975,8.345-4.975,13.5.177.177.3.414.533.3,3.852-4.2,7.637-10.183,13.262-11.956a4.027,4.027,0,0,1,3.375,2.131,12.934,12.934,0,0,1-1.242,12.965c-2.808,3.487-7.7,6.986-13.26,6.393a75.929,75.929,0,0,0-4.8,17.879c-.473,1.243-1.6.119-2.308-.119-4.8-3.789-.858-13.818-.533-15.1s1.6-4.287,2.547-6.808c-2.247-4.025-.83-8.88,1.005-12.61a25.145,25.145,0,0,1,5.684-6.867.8.8,0,0,1,.708.3Zm9.534,6.394c-.71-.119-1.007.83-1.6,1.007-2.723,3.079-5.447,6.157-6.809,9.827,1.837.241,3.374-.947,4.975-1.6a8.659,8.659,0,0,0,4.262-7.814c-.12-.534-.593-.948-.83-1.422Z" transform="translate(-2.835 -57.683)" fill="#fff"/>
    </g>
  </g>
</svg>
