<svg xmlns="http://www.w3.org/2000/svg" xmlns:xlink="http://www.w3.org/1999/xlink" width="240" height="108" viewBox="0 0 240 108">
  <defs>
    <clipPath id="clip-Artboard_16">
      <rect width="240" height="108"/>
    </clipPath>
  </defs>
  <g id="Artboard_16" data-name="Artboard – 16" clip-path="url(#clip-Artboard_16)">
    <g id="Group_69287" data-name="Group 69287" transform="translate(41 33.002)">
      <circle id="Ellipse_16" data-name="Ellipse 16" cx="21.5" cy="21.5" r="21.5" fill="#fff"/>
      <circle id="Ellipse_9" data-name="Ellipse 9" cx="4" cy="4" r="4" transform="translate(6 16.605)"/>
      <circle id="Ellipse_12" data-name="Ellipse 12" cx="4" cy="4" r="4" transform="translate(28 17.5)"/>
      <circle id="Ellipse_13" data-name="Ellipse 13" cx="2.5" cy="2.5" r="2.5" transform="translate(19 19)"/>
      <circle id="Ellipse_11" data-name="Ellipse 11" cx="4" cy="4" r="4" transform="translate(17.5 28.351)"/>
      <circle id="Ellipse_15" data-name="Ellipse 15" cx="4" cy="4" r="4" transform="translate(17.5 6)"/>
      <g id="Ellipse_14" data-name="Ellipse 14" transform="translate(10 10)" fill="none" stroke="#000" stroke-width="1">
        <circle cx="11.5" cy="11.5" r="11.5" stroke="none"/>
        <circle cx="11.5" cy="11.5" r="11" fill="none"/>
      </g>
      <path id="Path_116343" data-name="Path 116343" d="M263.764-198.522a7.97,7.97,0,0,0-1.768.542,8.135,8.135,0,0,1-1.32.613,16.916,16.916,0,0,0-6.742,5.917,5.841,5.841,0,0,1-.872,1.249,9.367,9.367,0,0,0-.825,2c-.589,1.768-.636,2.24-.636,5.469,0,4.125.354,5.469,2,8.086a16.014,16.014,0,0,0,11.528,7.709,9.909,9.909,0,0,0,4.479-.024,15.439,15.439,0,0,0,9.335-4.691c1.627-1.7,2.263-2.852,1.721-3.206-.5-.306-.519-.306-1.226.849a14.2,14.2,0,0,1-5.328,4.432,12.354,12.354,0,0,1-6.742,1.65,12.824,12.824,0,0,1-6.577-1.532,11.66,11.66,0,0,1-3.843-2.947,9.988,9.988,0,0,1-1.957-2.381,6.838,6.838,0,0,1,2.711-1.933,8.139,8.139,0,0,0,1.179-.707,5.563,5.563,0,0,1,1.179-.707c.071,0,1.155-.613,2.428-1.367,1.249-.754,2.876-1.7,3.583-2.075a14.312,14.312,0,0,0,1.414-.825,17.286,17.286,0,0,1,2-1.2c3.112-1.745,9.595-5.493,10.656-6.153a4.615,4.615,0,0,1,1.3-.637c.189,0,.212-.071.071-.189a19.1,19.1,0,0,1-1.391-1.886,9.049,9.049,0,0,0-1.3-1.7,6.1,6.1,0,0,1-1.061-.849,12.718,12.718,0,0,0-3.678-2.334,7.411,7.411,0,0,1-1.179-.613,8.829,8.829,0,0,0-1.933-.542A20.057,20.057,0,0,0,263.764-198.522Zm7.025,1.344a12.73,12.73,0,0,1,4.408,1.744,4.6,4.6,0,0,0,.967.66,15.374,15.374,0,0,1,3.418,3.489c.094.283-.236.613-1.273,1.226a8.777,8.777,0,0,1-1.65.849.193.193,0,0,0-.212.189,9.413,9.413,0,0,1-2,1.2,8.606,8.606,0,0,0-2,1.249.216.216,0,0,1-.236.189,16,16,0,0,0-2.192,1.155c-1.084.637-2.428,1.414-3.017,1.721-1.7.919-5,2.829-5.634,3.253-.33.212-1.32.8-2.24,1.3-.9.5-1.7.99-1.768,1.061a17.034,17.034,0,0,1-2.994,1.65c-.141,0-.424-.448-.66-1.014-.212-.542-.519-1.249-.66-1.579a24.931,24.931,0,0,1-.189-7.1,16.55,16.55,0,0,1,5.8-8.817c.519-.4.99-.754,1.061-.825a21.158,21.158,0,0,1,3.418-1.438A16.229,16.229,0,0,1,270.789-197.179Z" transform="translate(-199.81 203.637)" fill="#fff"/>
      <path id="Path_116344" data-name="Path 116344" d="M414.976-198.449a16.056,16.056,0,0,0-5.257,2.192,16.306,16.306,0,0,0-4.644,5.3l-.9,1.579v-8.6H403V-167.1h1.132l.094-9.265c.094-8.628.141-9.359.613-11.127a12.578,12.578,0,0,1,3.348-5.752c2.31-2.381,3.7-3.206,6.318-3.772a21.193,21.193,0,0,1,6.459,0c1.438.306,3.96,1.367,3.96,1.65,0,.118.141.212.306.212a5.825,5.825,0,0,1,1.579,1.3c1.367,1.367,1.65,1.509,2.1.967.424-.5-2.24-2.994-4.22-3.96a15.125,15.125,0,0,1-1.65-.919C422.519-198.378,417.333-198.826,414.976-198.449Z" transform="translate(-315.519 203.446)" fill="#fff"/>
      <path id="Path_116345" data-name="Path 116345" d="M591.319-198.772c-2.381.471-3.088.637-3.183.778-.071.071-.943.542-1.933,1.037a8.716,8.716,0,0,0-2,1.2,11.334,11.334,0,0,1-1.2,1.084,14.844,14.844,0,0,0-2.357,2.923l-1.344,2.122-.071-4.291-.047-4.29H578v30.882h1.179V-176c0-9.618.141-10.844,1.462-13.343.4-.8.872-1.674,1.037-1.98a17.562,17.562,0,0,1,3.348-3.513c.471-.377.919-.731,1.014-.825a14.459,14.459,0,0,1,4.408-1.6,19.2,19.2,0,0,1,7.8.448,15.244,15.244,0,0,1,8.84,9.335c.448,1.32.5,2.1.566,10.8l.071,9.359h1.179l-.071-9.5c-.047-6.813-.141-9.618-.354-9.948a14.293,14.293,0,0,1-.778-2,14.41,14.41,0,0,0-4.361-6.412,18.029,18.029,0,0,0-7.19-3.465A17.876,17.876,0,0,0,591.319-198.772Z" transform="translate(-449.264 203.675)" fill="#fff"/>
      <path id="Path_116346" data-name="Path 116346" d="M536-180.559v15.441h1.179V-196H536Z" transform="translate(-417.165 201.468)" fill="#fff"/>
    </g>
  </g>
</svg>
