<svg xmlns="http://www.w3.org/2000/svg" xmlns:xlink="http://www.w3.org/1999/xlink" width="240" height="108" viewBox="0 0 240 108">
  <defs>
    <clipPath id="clip-Artboard_7">
      <rect width="240" height="108"/>
    </clipPath>
  </defs>
  <g id="Artboard_7" data-name="Artboard – 7" clip-path="url(#clip-Artboard_7)">
    <g id="Group_18916" data-name="Group 18916" transform="translate(45.356 40.413)">
      <path id="Path_52" data-name="Path 52" d="M5905.427,830.982v27.782h6.213V847.256h10.671v-4.8h-10.671v-6.668h12.728v-4.811Z" transform="translate(-5789.82 -830.945)" fill="#fff"/>
      <path id="Path_53" data-name="Path 53" d="M5940.37,859.576h5.893v-27.6h-4.884s-.172,5.67-7.441,5.8c.045.118,0,3.975,0,3.975h6.433Z" transform="translate(-5795.228 -831.757)" fill="#fff"/>
      <path id="Path_18490" data-name="Path 18490" d="M33.743,141.783H58l-1.034,7.858H32.895l.848-7.858Zm-1.219,10.724h24.26l-.8,6.362H41.072l-.479,3.3H55.568l-.906,7.434H30.508l2.016-17.094ZM139.333,169.6h-8.974l1.967-17.094h9.081L139.333,169.6Zm-18.048,0h-8.971l1.963-17.094h9.075L121.285,169.6ZM114.6,149.641h27.124c1.227-5.258-1.325-7.858-3.981-7.858-3.141,0-10.8.009-22.139.009l-1,7.849Zm-27.816,2.867L84.814,169.6h8.971l1.224-10.732h12.951a4.4,4.4,0,0,0,4.678-3.382l.579-2.98Zm-28.819,0s-.006,1.666-.006,2.55a4.218,4.218,0,0,0,4.351,3.813c1.647,0,13.354.02,13.354.02l-.427,3.277H57.159L56.2,169.6H77.384c1.78,0,5.93-1.447,6.635-5.68,0,0,.826-6.958.85-7.219.108-1.36-.717-4.2-4.39-4.2ZM64.3,141.783c-2.123,0-5.871,2.425-5.871,7.858h55.1c.7-7.564-4.249-7.851-4.87-7.858H64.3Z" transform="translate(-30.508 -141.783)" fill="#fff"/>
    </g>
  </g>
</svg>
