<svg id="facebook-2" xmlns="http://www.w3.org/2000/svg" xmlns:xlink="http://www.w3.org/1999/xlink" width="36" height="36" viewBox="0 0 36 36">
  <defs>
    <linearGradient id="linear-gradient" x1="0.332" y1="0.141" x2="0.585" y2="0.682" gradientUnits="objectBoundingBox">
      <stop offset="0" stop-color="#3457a0"/>
      <stop offset="1" stop-color="#3b5998"/>
    </linearGradient>
    <linearGradient id="linear-gradient-2" x1="0.714" y1="0.647" x2="-0.271" y2="-0.03" gradientUnits="objectBoundingBox">
      <stop offset="0" stop-color="#3457a0" stop-opacity="0"/>
      <stop offset="1" stop-color="#1f3f77"/>
    </linearGradient>
    <linearGradient id="linear-gradient-3" x1="0.5" y1="0.177" x2="0.5" y2="0.855" xlink:href="#linear-gradient-2"/>
    <linearGradient id="linear-gradient-4" x1="1.26" y1="0.791" x2="0.043" y2="0.371" gradientUnits="objectBoundingBox">
      <stop offset="0" stop-color="#3457a0" stop-opacity="0"/>
      <stop offset="0.325" stop-color="#2a4c8d" stop-opacity="0.325"/>
      <stop offset="0.705" stop-color="#22427d" stop-opacity="0.706"/>
      <stop offset="1" stop-color="#1f3f77"/>
    </linearGradient>
  </defs>
  <path id="Path_111279" data-name="Path 111279" d="M29.561,35.384a108.736,108.736,0,0,1-23.122,0A6.555,6.555,0,0,1,.616,29.561a108.733,108.733,0,0,1,0-23.122A6.555,6.555,0,0,1,6.439.616a108.733,108.733,0,0,1,23.122,0,6.555,6.555,0,0,1,5.823,5.823,108.733,108.733,0,0,1,0,23.122A6.555,6.555,0,0,1,29.561,35.384Zm0,0" fill="url(#linear-gradient)"/>
  <path id="Path_111280" data-name="Path 111280" d="M60.232,34.548a5.817,5.817,0,0,0-5.167-5.167,96.524,96.524,0,0,0-20.518,0,5.817,5.817,0,0,0-5.167,5.167,96.522,96.522,0,0,0,0,20.517,5.817,5.817,0,0,0,5.167,5.167,96.486,96.486,0,0,0,20.517,0,5.816,5.816,0,0,0,5.167-5.167A96.486,96.486,0,0,0,60.232,34.548Zm0,0" transform="translate(-26.807 -26.807)" fill="url(#linear-gradient-2)"/>
  <path id="Path_111281" data-name="Path 111281" d="M7.672,409.8q.037.373.077.747a6.555,6.555,0,0,0,5.823,5.823,108.733,108.733,0,0,0,23.122,0,6.555,6.555,0,0,0,5.823-5.823q.04-.373.077-.747Zm0,0" transform="translate(-7.132 -380.99)" fill="url(#linear-gradient-3)"/>
  <path id="Path_111282" data-name="Path 111282" d="M228.712,85.27a5.679,5.679,0,0,0-5.679,5.679v4.242h-3.056v5.252l3.056,2.738v12.092a108.964,108.964,0,0,0,11.037-.615,6.555,6.555,0,0,0,5.823-5.823,108.715,108.715,0,0,0,.469-17.206L234,85.27Zm0,0" transform="translate(-204.509 -79.274)" fill="url(#linear-gradient-4)"/>
  <path id="Path_111283" data-name="Path 111283" d="M223.033,115.272q3.146-.015,6.291-.213V100.443H233.5l.5-5.252h-4.679V91.856a1.334,1.334,0,0,1,1.334-1.334H234V85.27h-5.291a5.679,5.679,0,0,0-5.679,5.679v4.242h-3.056v5.252h3.056Zm0,0" transform="translate(-204.509 -79.274)" fill="#fff"/>
</svg>
