<svg xmlns="http://www.w3.org/2000/svg" xmlns:xlink="http://www.w3.org/1999/xlink" width="240" height="108" viewBox="0 0 240 108">
  <defs>
    <clipPath id="clip-Artboard_5">
      <rect width="240" height="108"/>
    </clipPath>
  </defs>
  <g id="Artboard_5" data-name="Artboard – 5" clip-path="url(#clip-Artboard_5)">
    <g id="great-american-insurance-group" transform="translate(23.475 10.256)">
      <path id="Path_115233" data-name="Path 115233" d="M132.046,47.684c.854,1.3,19.734-8.795,28.691-3.371,0,0,5.47-6.3,2.54-9.284-3.551-3.628-10.014-1.356-11.786-3.955-7.894-11.63-48.557-1.274-50.414-3.667-2.144-2.766,11.895-15.142,4.6-21.777C96.395-2.824,69.8-.166,47.31,3.462,22.612,7.44-.229,15.053.066,16.095c.661,2.37,26.213-6.962,54.547-9.478C129.139,0,94.687,19.769,96.3,30.5c.924,6.169,9.4-1.1,38.139-.551,14.038.272,9.726,2.432,14.132,4.8,2.874,1.55,14.715-.272,10.963,5.143a34.334,34.334,0,0,0-11.273.226c-8.158,1.585-16.906,6.5-16.207,7.567" transform="translate(-0.058 -0.014)" fill="#fff"/>
      <g id="Group_68667" data-name="Group 68667" transform="translate(0 47.134)">
        <path id="Path_115234" data-name="Path 115234" d="M186.311,647.659h1.7v-4.413h1.5a2.887,2.887,0,0,0,3.123-3.154c0-1.826-.893-3.108-2.944-3.108h-3.379Zm1.7-9.385H189.1c1.356,0,1.826.7,1.826,1.857a1.612,1.612,0,0,1-1.7,1.841h-1.22v-3.7Zm-10.721-1.282v7.521c0,2.47,1.227,3.365,3.271,3.365s3.255-.893,3.255-3.365v-7.521h-1.7v7.653c0,1.344-.536,1.938-1.55,1.938-1.034,0-1.569-.6-1.569-1.938v-7.653Zm-5.733,9.591c-1.018,0-1.826-.63-1.826-4.3,0-3.589.808-4.219,1.826-4.219s1.826.63,1.826,4.219c0,3.675-.808,4.3-1.826,4.3m0,1.282c2.447,0,3.527-1.732,3.527-5.547s-1.072-5.539-3.527-5.539-3.527,1.732-3.527,5.539,1.08,5.547,3.527,5.547M161.2,641.735v-3.473h1.453c1.119,0,1.616.6,1.616,1.732a1.569,1.569,0,0,1-1.7,1.732H161.2Zm-1.7,5.92h1.7v-4.638h1.39c1.163,0,1.523.5,1.55,1.678.031.775.016,1.375.078,2.02a1.821,1.821,0,0,0,.28.94h1.934a1.081,1.081,0,0,1-.5-.924c-.031-.645-.047-1.484-.062-2.167-.062-1.492-.614-2.074-1.67-2.183v-.029c1.163-.178,1.779-1.243,1.779-2.616a2.465,2.465,0,0,0-2.7-2.75h-3.768Zm-3.651,0h1.286v-5.619h-3.411v1.284h1.8c0,2.331-.484,3.278-1.779,3.263-1.15,0-1.717-.862-1.717-4.3,0-3.411.645-4.219,1.857-4.219,1.163,0,1.5.94,1.5,1.732v.257h1.608v-.194a2.906,2.906,0,0,0-3.123-3.077c-2.47,0-3.543,1.732-3.543,5.547s.839,5.539,3.17,5.539a2.238,2.238,0,0,0,2.331-1.445h.031Zm-17.244,0h5.889v-1.429h-4.188v-3.411h3.831v-1.43h-3.831v-2.967h4.063v-1.43H138.6v10.667Zm-3.792-3.823v.179c0,.986-.163,2.571-1.585,2.571-1.259,0-1.826-.862-1.826-4.3s.567-4.219,1.826-4.219c1.227-.047,1.523,1.088,1.523,2.082v.178h1.7v-.194c0-1.1-.178-3.348-3.216-3.348-2.7,0-3.543,1.732-3.543,5.539s.839,5.547,3.527,5.547c2.509,0,3.286-1.88,3.286-3.807v-.225h-1.693Zm-14.256,3.823h1.616v-8.166h.031l3.1,8.166h2.074V636.992H125.77v7.944h-.031l-3.1-7.944h-2.074l-.008,10.667Zm-9.8,0h1.779l.684-2.616h3.123l.661,2.616h1.773l-2.809-10.667h-2.184Zm2.781-3.972,1.266-5.259h.031l1.227,5.259Zm-9.447-1.95V638.26h1.453c1.119,0,1.616.6,1.616,1.732a1.569,1.569,0,0,1-1.7,1.732h-1.367Zm-1.7,5.92h1.7v-4.639h1.39c1.163,0,1.523.5,1.55,1.678.031.775.016,1.375.077,2.02a1.822,1.822,0,0,0,.28.94h1.927a1.081,1.081,0,0,1-.5-.924c-.031-.645-.046-1.484-.062-2.167-.062-1.492-.614-2.074-1.67-2.183v-.027c1.163-.178,1.779-1.243,1.779-2.616a2.465,2.465,0,0,0-2.7-2.75h-3.768V647.66Zm-9.01-10.667v7.521c0,2.47,1.227,3.365,3.271,3.365s3.255-.893,3.255-3.365v-7.521H98.2v7.653c0,1.344-.536,1.938-1.55,1.938-1.034,0-1.569-.6-1.569-1.938v-7.653Zm-8.81,7.363v.257a2.927,2.927,0,0,0,3.24,3.255c2.152,0,3.527-.94,3.527-3.216a2.734,2.734,0,0,0-2.167-2.828l-1.15-.42c-1.134-.435-1.6-.893-1.6-1.811a1.361,1.361,0,0,1,1.438-1.538,1.338,1.338,0,0,1,1.5,1.538v.226h1.7v-.241c0-1.1-.28-2.81-3.015-2.81-2,0-3.317,1.073-3.317,3.015,0,1.523.668,2.331,2.222,2.929l1.163.4a1.794,1.794,0,0,1,1.523,1.9,1.512,1.512,0,0,1-1.616,1.55c-1.181,0-1.744-.661-1.744-1.958v-.272l-1.7.015Zm-9,3.31h1.608v-8.166H77.2l3.1,8.166h2.074V636.992H80.76v7.944h-.031l-3.092-7.944H75.564Zm-4.211,0h1.7V636.992h-1.7Zm-53.08-23.327a19.758,19.758,0,0,1-7.6,1.3C3.45,625.634,0,620.918,0,616.3c0-5.508,4.413-9.6,10.675-9.6,3.046,0,4.413,1.08,5.716,1.08a1.929,1.929,0,0,0,1.438-.622h.614v5.05h-.617a7.459,7.459,0,0,0-6.878-4.49c-4.11,0-6.371,3.325-6.371,8.9,0,5.757,2.743,8,6.433,8,1.818,0,3.224-.427,3.224-1.911v-2.681c0-1.173-.512-1.937-2.051-2.215v-.52h8.041v.52c-1.469.373-1.95,1.049-1.95,2.7Zm38.574-10.376-2.222,5.586h4.553Zm2.75,6.573H54.154l-.761,1.834c-.551,1.3-.443,2,1.227,2.4v.4H49.777v-.4c1.492-.234,2.121-1.523,2.774-3.131l4.4-10.6h2.2l4.662,11.025c.839,1.95,1.523,2.616,2.851,2.7v.4H59.046v-.4c1.911-.326,1.989-.8,1.438-2.121Zm8.018,4.639v-.4c1.624-.28,1.938-.754,1.938-2.074V612.17H68.008a3.112,3.112,0,0,0-3.4,2.261h-.443l.155-3.325h.474a2.629,2.629,0,0,0,.707.209,5.247,5.247,0,0,0,.808.07H76.27a3.475,3.475,0,0,0,1.515-.28h.474l.155,3.325h-.45a3.1,3.1,0,0,0-3.391-2.261H73.03V622.72c0,1.345.443,1.811,1.88,2.051v.4Zm-41.239-7.349v-5.648h1.049c2.1,0,3.2.963,3.2,2.735,0,2.284-1.336,3.108-4.242,2.913m22.379,7.349.291-3.34H48.6c-.5,1.32-1.336,2.563-3.224,2.563h-.893c-1.523,0-2.1-.451-2.1-1.7v-4.047h2.7a1.88,1.88,0,0,1,2.121,1.763h.5v-4.263h-.5a1.888,1.888,0,0,1-2.121,1.717h-2.7v-5.705h2.96c1.7,0,2.277.512,2.774,2.284h.443v-3.061H36.973v.4c1.624.291,1.938.707,1.938,1.911v8.857c0,2.043-1.826,2.7-2.984,1.624-1.367-1.266-3.038-5.656-4.739-6.006v-.046c2.2-.567,3.092-1.865,3.092-3.278,0-1.938-1.7-3.465-5.943-3.465H20.946v.4c1.647.291,1.938.73,1.938,1.888v9.322c0,1.111-.684,1.67-1.938,1.771v.4h7.389v-.4c-1.414-.187-1.966-.707-1.966-1.927v-4.242c1.356,0,1.888.023,2.563.638,1.181,1.066,2.284,4.148,3.955,5.936l15.872.016Zm142.688,5.182h.458c.233,0,.484.047.484.342,0,.35-.28.365-.581.365h-.357Zm-.342,1.95h.342v-.955h.371l.606.955h.373l-.63-.987a.574.574,0,0,0,.581-.605c0-.427-.249-.637-.775-.637h-.854V632.3Zm-1.189-1.127a1.919,1.919,0,0,0,3.838.023v-.023a1.919,1.919,0,1,0-3.838,0m.35,0a1.572,1.572,0,1,1,.438,1.157,1.57,1.57,0,0,1-.438-1.157M120.234,617.95c1.562,0,1.981.528,2.059,2.331h.4l.661-3.123H112.692l-.085.412c1.43.291,1.631.723,1.367,1.95l-1.911,9.036c-.311,1.445-.622,1.927-2.261,2.261l-.085.412h10.839l.987-3.411h-.412c-.738,1.344-1.779,2.616-3.512,2.616H116.8c-1.4,0-1.826-.458-1.562-1.732l.878-4.14H118.6c1.158,0,1.662.581,1.569,1.811h.458l.916-4.351h-.458c-.559,1.274-1.189,1.755-2.325,1.755h-2.478l1.227-5.819Zm27.541-.8h-6.767l-.085.412c1.391.358,1.624.723,1.356,1.973l-1.9,8.989c-.291,1.375-.443,1.849-2.269,2.284l-.085.412H144.8l.085-.412c-1.391-.357-1.624-.723-1.356-1.973l1.911-9.02c.28-1.344.489-1.873,2.253-2.261Zm11.91,10.822c-1.8,1.562-3.286,2.238-5,2.238-2.673,0-4.7-1.779-3.7-6.518.785-3.721,2.952-6.1,5.57-6.1,2.377,0,3.792,1.639,3.846,4.475h.381l1.088-5.143h-.387c-.35.5-.661.723-1.018.723-.7,0-1.7-.839-3.792-.839a9.768,9.768,0,0,0-9.315,7.6c-.9,4.258,1.55,7.186,5.858,7.186a8.254,8.254,0,0,0,6.309-2.859Z" transform="translate(0 -606.7)" fill="#fff"/>
        <path id="Path_115235" data-name="Path 115235" d="M915.563,696l4.156-7.287,1.2,7.287Zm21.787,2.558-1.717-9.284h-5.182l-.085.412a2.431,2.431,0,0,1,1.841.964l-3.34,9.183c-.551,1.492-1.158,2.828-1.919,2.789-.775.016-1.375-1.344-1.724-3.34l-2.432-14.38h-2.144l-8.087,13.834c-1.212,2.09-2.432,3.783-4.25,4.086l-.109.52h5.813l.109-.52c-1.857-.52-1.786-1.445-.785-3.131l1.4-2.4h6.394l.458,2.766c.28,1.724.062,2.339-2.277,2.766l-.116.52h11.522l.085-.412c-1.562-.116-1.639-1.227-1.057-2.859l2.975-8.267h.046l2.082,11.537h.614l7.008-11.537h-.062l-.427,8.033c-.124,1.826-.684,2.719-2.3,3.1l-.085.412h7.169l.085-.412a1.807,1.807,0,0,1-1.678-2.184l.574-8.779a2.145,2.145,0,0,1,2.066-2.284l.1-.412h-4.98Zm29.36-2.719,1.22-5.772h.963c1.927,0,2.727.986,2.346,2.789-.489,2.339-1.9,3.178-4.529,2.983m7.521,6.491c-1-1.274-1.569-5.772-3.053-6.129l-.1-.047a4.65,4.65,0,0,0,3.651-3.34c.419-1.973-.924-3.535-4.817-3.535h-6.8l-.085.412c1.453.291,1.624.746,1.375,1.919l-2.012,9.525a2.164,2.164,0,0,1-2.159,1.8l-.085.412h6.8l.085-.412c-1.259-.194-1.655-.723-1.391-1.973l.917-4.327c1.251,0,1.724.023,2.222.645.855,1.08,1.2,4.234,2.354,6.06H975.3l.085-.412a1.571,1.571,0,0,1-1.15-.6m28.318-4.747,3.247-5.7.94,5.7Zm23.347-8.313-.085.412c1.422.334,1.577.986,1.212,2.7l-1.336,6.324-6.239-9.424h-4.343l-.085.412c.551.116.73.291,1.585,1.39l-1.989,9.432c-.373,1.7-3.286,4.4-4.148-.342l-1.9-11.257h-2.037l-6.332,10.822c-.948,1.631-1.9,2.96-3.317,3.2l-.085.412h4.553l.085-.412c-1.453-.4-1.4-1.127-.606-2.447l1.1-1.873h5l.365,2.159c.218,1.344.047,1.826-1.779,2.159l-.085.412h11.625l.085-.412c-1.562-.264-1.927-.692-1.6-2.228l1.826-8.609,7.714,11.421h.56L1028.071,692a2.531,2.531,0,0,1,2.532-2.308l.085-.412-4.793-.008Z" transform="translate(-837.641 -678.825)" fill="#fff"/>
      </g>
    </g>
  </g>
</svg>
