<svg xmlns="http://www.w3.org/2000/svg" xmlns:xlink="http://www.w3.org/1999/xlink" width="240" height="108" viewBox="0 0 240 108">
  <defs>
    <clipPath id="clip-Artboard_17">
      <rect width="240" height="108"/>
    </clipPath>
  </defs>
  <g id="Artboard_17" data-name="Artboard – 17" clip-path="url(#clip-Artboard_17)">
    <path id="Logo" d="M524.96,7940.153h.052a3.77,3.77,0,0,1,3.543-2.008c3.244,0,4.4,2.314,4.4,4.782v7.665H529.94v-6.143c0-1.341-.1-3.57-2.208-3.57-1.988,0-2.768,1.473-2.764,3.086v6.624H521.95v-19.112h3.017v8.673h0Zm13.827,5.426a3.133,3.133,0,0,0,3.243,2.885,3.954,3.954,0,0,0,3.241-1.644l2.165,1.644a6.469,6.469,0,1,1-5.107-10.317c3.365,0,5.657,2.381,5.657,6.6v.841h-9.2Zm6.181-2.279a2.778,2.778,0,0,0-3.066-2.875,3.007,3.007,0,0,0-3.117,2.874Zm13.374,5.617-.074-.009a4.318,4.318,0,0,1-3.871,1.976c-2.239,0-4.4-1.229-4.4-3.641,0-3.943,4.572-4.216,7.587-4.216h.755v-.331c0-1.492-1.157-2.279-2.764-2.271a4.725,4.725,0,0,0-3.218,1.262l-1.585-1.591a7.056,7.056,0,0,1,5.127-1.949c5.152-.008,5.152,3.743,5.152,5.458v6.979H558.34v-1.664h0Zm-.177-3.772h-.631c-1.658,0-4.521.131-4.521,1.876,0,1.109,1.129,1.594,2.109,1.594,2.061,0,3.042-1.09,3.038-2.783v-.687h0Zm6.18-13.675h3.016l.006,19.112h-3.012l-.006-19.112h0Zm5.081,9.551v-2.583l2.487.01v-3.52h3.017v3.51h3.318v2.581H574.93v5.3c0,1.222.352,1.977,1.682,1.977a3.087,3.087,0,0,0,1.634-.382v2.563a6.378,6.378,0,0,1-2.387.4c-3.192,0-3.949-1.442-3.951-4.3v-5.567H569.42Zm14.2-.888h.052a3.771,3.771,0,0,1,3.542-2c3.244,0,4.4,2.3,4.4,4.78v7.653H588.6v-6.141c0-1.341-.1-3.559-2.208-3.559-1.985,0-2.764,1.462-2.761,3.086v6.624l-3.016-.01-.006-19.112h3.017v8.674h0Zm9.779-1.694h3.318l3.365,8.422.052-.01,3.013-8.412H606.3l-5.7,14.735c-.878,2.278-1.936,3.47-4.6,3.47a8.87,8.87,0,0,1-2.313-.3l.374-2.733a4.354,4.354,0,0,0,1.532.3c1.487,0,1.886-.533,2.389-1.795l.579-1.443-5.152-12.233h0Zm69.462,9.6a.18.18,0,0,0-.26.081c-.977,2.138-1.933,3.278-2.754,3.278a.919.919,0,0,1-.769-1.109,13.654,13.654,0,0,1,.469-2.712l2.993-11.872a9.613,9.613,0,0,0,.333-2.249c0-1.978-.936-3.2-2.448-3.2-2.26,0-3.575,2-5.21,5.7l-5.608,12.8,2.883-12.465a23.147,23.147,0,0,0,.7-4.932c0-2.914-1.292-3.53-2.378-3.53-2.349,0-3.747,2.26-5.244,5.888l-5.614,13.838c.37-1.644.728-3.178,1.058-4.58,1.129-4.837,1.95-8.33,1.947-10.8,0-5.484-3.126-7.946-6.217-7.946-4.457,0-7.821,4.588-7.818,10.67a12.723,12.723,0,0,0,6.61,11.6.2.2,0,0,0,.231-.061l.288-.4a.178.178,0,0,0,.03-.149.165.165,0,0,0-.105-.124,11.859,11.859,0,0,1-6.186-10.87c0-5.406,2.823-9.479,6.577-9.479,2.976,0,4.9,2.611,4.9,6.657,0,2.248-1.21,8.058-4.049,19.4a.18.18,0,0,0,.019.13.841.841,0,0,0,.85.395,1.225,1.225,0,0,0,1.27-.707l6.246-15.3c1.9-4.648,3.164-7.019,4.764-7.019.848,0,1.28.757,1.278,2.239a45.083,45.083,0,0,1-1.235,6.654l-3.1,13.606a.192.192,0,0,0,.019.131.863.863,0,0,0,.854.382,1.251,1.251,0,0,0,1.3-.7l6.5-14.813c1.638-3.743,2.581-5.3,4.182-5.3.28,0,1.13-.011,1.133,1.765a12.589,12.589,0,0,1-.483,2.611l-2.652,10.47a19.908,19.908,0,0,0-.7,3.9c0,1.543.812,2.57,2.012,2.57,1.412,0,2.608-1.221,3.891-3.963a.2.2,0,0,0-.073-.246l-.439-.249h0Zm13.471,1.262a.177.177,0,0,0-.141-.039.188.188,0,0,0-.119.081c-1.187,1.713-1.774,1.9-1.968,1.9a.273.273,0,0,1-.219-.292,38.588,38.588,0,0,1,1.779-7.341.183.183,0,0,0-.035-.174.17.17,0,0,0-.163-.059l-1.318.181a.209.209,0,0,0-.14.105c-2.611,5.151-4.472,7.654-5.678,7.654a.631.631,0,0,1-.619-.631,2.943,2.943,0,0,1,.171-.966l1.281-3.863a3.908,3.908,0,0,0,.227-1.118,1.191,1.191,0,0,0-1.1-1.36c-.785,0-1.682.766-3.1,2.643a.2.2,0,0,0-.037.142.186.186,0,0,0,.074.121l.4.291a.182.182,0,0,0,.253-.037c1.223-1.665,1.682-1.8,1.787-1.8a.2.2,0,0,1,.15.085.2.2,0,0,1,.031.168,1.849,1.849,0,0,1-.134.607l-1.1,3.274c-.038.122-.081.242-.116.353a4.3,4.3,0,0,0-.3,1.353,1.646,1.646,0,0,0,1.714,1.763c1.871,0,3.138-1.792,5.17-5.071a18.856,18.856,0,0,0-.673,3.642,1.285,1.285,0,0,0,1.279,1.432c.935,0,2-.868,3.076-2.512a.176.176,0,0,0-.046-.242l-.4-.294h0Zm19-.008a.174.174,0,0,0-.135-.034.182.182,0,0,0-.118.075c-1.145,1.664-1.7,1.914-1.931,1.905a.3.3,0,0,1-.257-.334,4.056,4.056,0,0,1,.186-1.028l.939-3.509a5.5,5.5,0,0,0,.264-1.411,1.4,1.4,0,0,0-1.429-1.582c-1.367.008-3.106,1.722-5.573,5.556l.672-2.673a4.931,4.931,0,0,0,.226-1.3,1.4,1.4,0,0,0-1.429-1.577c-1.325.011-2.965,1.706-5.258,5.469a24.346,24.346,0,0,0,.841-4.135c0-.879-.333-1.321-.991-1.321-.778,0-1.775.842-3.142,2.643a.2.2,0,0,0-.034.142.167.167,0,0,0,.071.12l.4.292a.165.165,0,0,0,.138.033.2.2,0,0,0,.119-.075c1.216-1.712,1.7-1.792,1.788-1.792.168-.009.184.221.183.291a39.143,39.143,0,0,1-.908,4.065q-.315,1.3-.736,3.024a.2.2,0,0,0,.046.163.175.175,0,0,0,.164.061l1.06-.183a.2.2,0,0,0,.127-.09c3.127-5.656,5.047-7.676,5.8-7.676a.372.372,0,0,1,.26.15.382.382,0,0,1,.07.292,7,7,0,0,1-.25,1.242l-1.567,6.032a.181.181,0,0,0,.041.172.172.172,0,0,0,.134.062h.029l1.1-.191a.182.182,0,0,0,.128-.082c3.8-6.343,5.427-7.676,6.125-7.676a.4.4,0,0,1,.333.483,2.549,2.549,0,0,1-.125.7c-.02.071-.037.143-.052.2l-.911,3.519-.056.2a4.847,4.847,0,0,0-.241,1.393,1.329,1.329,0,0,0,1.311,1.432c.936,0,2-.868,3.077-2.512a.181.181,0,0,0,.025-.138.176.176,0,0,0-.079-.112l-.436-.294h0Zm19.044-.01a.191.191,0,0,0-.252.048c-1.146,1.653-1.7,1.908-1.933,1.908a.314.314,0,0,1-.257-.333,4.077,4.077,0,0,1,.183-1.03l.946-3.519a5.38,5.38,0,0,0,.264-1.411,1.4,1.4,0,0,0-1.425-1.575c-1.372,0-3.11,1.724-5.573,5.557l.668-2.674a4.735,4.735,0,0,0,.227-1.3,1.4,1.4,0,0,0-1.426-1.583c-1.328,0-2.968,1.7-5.258,5.469a23.891,23.891,0,0,0,.841-4.146c0-.875-.332-1.318-.986-1.318-.778,0-1.778.841-3.142,2.653a.159.159,0,0,0-.037.131.2.2,0,0,0,.075.13l.4.292a.16.16,0,0,0,.137.029.2.2,0,0,0,.12-.079c1.21-1.706,1.7-1.8,1.787-1.8.172,0,.185.221.185.293a39.979,39.979,0,0,1-.893,4.013c-.215.878-.468,1.906-.746,3.075a.178.178,0,0,0,.045.173.168.168,0,0,0,.164.05l1.06-.183a.178.178,0,0,0,.125-.091c3.126-5.646,5.047-7.665,5.8-7.665a.383.383,0,0,1,.333.444,7.033,7.033,0,0,1-.251,1.241l-1.571,6.029a.185.185,0,0,0,.042.173.217.217,0,0,0,.135.051.039.039,0,0,0,.028,0l1.1-.182a.181.181,0,0,0,.128-.088c3.8-6.334,5.427-7.667,6.127-7.667a.388.388,0,0,1,.33.475,2.573,2.573,0,0,1-.125.707c-.016.068-.036.14-.053.2l-.914,3.528-.056.2a4.923,4.923,0,0,0-.241,1.395,1.334,1.334,0,0,0,1.311,1.431c.939,0,2-.867,3.076-2.5a.194.194,0,0,0-.05-.262l-.439-.293h0Zm12.569.463-.367-.374a.264.264,0,0,0-.143-.049.2.2,0,0,0-.134.081,8.569,8.569,0,0,1-1.73,1.554l2.017-7.281a.189.189,0,0,0-.037-.171.2.2,0,0,0-.165-.061l-1.17.181a.183.183,0,0,0-.146.13c-1.683,4.994-3.821,7.222-5.2,7.222a.7.7,0,0,1-.729-.806,3.317,3.317,0,0,1,.105-.8l1.023-3.53a5.909,5.909,0,0,0,.225-1.189,1.156,1.156,0,0,0-1.1-1.279c-.785,0-1.682.766-3.1,2.642a.185.185,0,0,0-.037.142.175.175,0,0,0,.076.121l.4.294a.185.185,0,0,0,.135.034.2.2,0,0,0,.118-.074c1.22-1.674,1.682-1.8,1.788-1.794a.2.2,0,0,1,.149.083.2.2,0,0,1,.032.167,1.749,1.749,0,0,1-.082.4l-1.045,3.711a4.236,4.236,0,0,0-.187,1.08,1.756,1.756,0,0,0,1.828,1.917c1.372,0,2.9-1.183,4.109-3.108l-.756,2.965c-4.04,1.6-5.618,2.794-5.619,4.216a1.584,1.584,0,0,0,1.754,1.542c2.2,0,3.915-1.788,5.23-5.467a12.211,12.211,0,0,0,2.765-2.241.187.187,0,0,0-.006-.251m-4.378,3.238c-.617,2.451-1.922,3.843-3.613,3.843a.751.751,0,0,1-.877-.7c0-1,1.715-1.956,4.491-3.146m-229.709-10.6h-2.646v6.071a1.189,1.189,0,0,0,1.285,1.311,3.551,3.551,0,0,0,1.36-.323l.105,1.079a5.023,5.023,0,0,1-1.564.332,2.176,2.176,0,0,1-2.388-2.4v-6.068H487v-1.091h2.007V7938.6h1.2v2.683h2.646v1.091h0Zm2.143-7.021h1.2v7.564h.04a3.454,3.454,0,0,1,3.166-1.875c2.888,0,3.53,1.976,3.53,4.014v5.537h-1.2v-5.485c0-1.513-.421-2.986-2.329-2.986-1.788,0-3.2,1.253-3.2,3.813v4.66h-1.2v-15.247h0Zm19.333,13.479a4.8,4.8,0,0,1-8.7-2.924,4.617,4.617,0,0,1,4.627-4.882,4.226,4.226,0,0,1,4.353,4.357v.848l-7.781.009a3.465,3.465,0,0,0,3.509,3.5,3.7,3.7,0,0,0,3.106-1.653l.884.746Zm-.922-3.692a3.126,3.126,0,0,0-3.21-3.015,3.427,3.427,0,0,0-3.365,3.025l6.576-.011Zm104.836,5.274c-.1,1.795-.923,5.3-1.253,7.223-.288,1.675-.631,3.575-1.779,4.312a4,4,0,0,1-3.447.2c-1.464-.566-3.025-1.021-4.579-1.494a6.6,6.6,0,0,0-.907-.3,9.114,9.114,0,0,0-1.2-.02,2.935,2.935,0,0,0-1.4.14,5.22,5.22,0,0,0-1.262,2.3c-.122.42-.247.756-.4,1.279-.137.454-.21,1.211-.5,1.27a1.383,1.383,0,0,1-.818-.382,3.16,3.16,0,0,1-.466-1.32,6.006,6.006,0,0,1-.261-1.581,4.1,4.1,0,0,1,.526-1.121c.182-.382.382-.787.526-1.109.325-.736.489-1.756,1.169-2.087a3.542,3.542,0,0,1,1.9.1,3.831,3.831,0,0,0,1.692-.322,9.337,9.337,0,0,1,5.165-.353,4.681,4.681,0,0,1,1.431.945,34.6,34.6,0,0,1-.292-6c.044-.988.141-2,.176-2.984.031-1.009-.2-2.018-.121-3.025a5.977,5.977,0,0,1,1.312-3.2,12.469,12.469,0,0,1,1.02-1.238,4,4,0,0,0,1.138-1.322,9.465,9.465,0,0,0-.263-5.455,17.732,17.732,0,0,0-1.488-3.179,4.832,4.832,0,0,0-.642-.986,10.217,10.217,0,0,1-1.052-1.09,7.926,7.926,0,0,0-.877-1.231,4.1,4.1,0,0,1-3.47.614c-.751-.271-1.337-.966-2.073-1.321a2.391,2.391,0,0,1-.73-.381,3.665,3.665,0,0,1,1.867-.089,3.773,3.773,0,0,0,1.781-.2,1.281,1.281,0,0,0,.817-.877,4.541,4.541,0,0,0-.963-1.211c-.315-.353-.671-.9-.994-1.229-.18-.182-.451-.374-.671-.615a2.621,2.621,0,0,0-.642-.613c-.1-.05-.315-.063-.439-.122a3.372,3.372,0,0,1-.757-.678c-1.21-1.139-2.354-2.328-3.591-3.459-.219-.2-.491-.421-.729-.677a3.775,3.775,0,0,0-.736-.674,5.905,5.905,0,0,1-1.428-.555,5.387,5.387,0,0,1-.4-1.2,2.929,2.929,0,0,1-.383-1.795,2.205,2.205,0,0,1,.234-.354,1.838,1.838,0,0,1,.118-.384,1.006,1.006,0,0,1,.73-.23,1.3,1.3,0,0,1,.642-.415c.256.062.163.3.29.555a1.4,1.4,0,0,0,.378-.061,3.127,3.127,0,0,1,.707.675,4.125,4.125,0,0,1,.088,1.041c.014.341.035.685.026,1.018,1.347,1.31,2.886,2.523,4.379,3.762a20.446,20.446,0,0,0,2.689,2.169,10.442,10.442,0,0,1,1.606.965,7.558,7.558,0,0,0,1.169,1.118,4.478,4.478,0,0,1-.38-2.762,5.333,5.333,0,0,1,2.887-3.055c.533-.253,1.556-.757,2.158-.475a1.3,1.3,0,0,1,.47.944c.491.421,1.429.4,1.721,1.028a.209.209,0,0,0,.232.021c-.013.12.011.189.087.21a6.812,6.812,0,0,1,1.311.292,1.512,1.512,0,0,1-.061.554.747.747,0,0,0,.381.292v.273a.5.5,0,0,1,.29.322,1.317,1.317,0,0,1,.469.525c.133.686-.526.917-.707,1.521a2.431,2.431,0,0,0,0,1.03,1.105,1.105,0,0,0,.382-.558c.338-.613.589-1.3.962-1.935.347-.6.9-1.1,1.253-1.675a15.491,15.491,0,0,0,.962-3.872c.132-.606.245-1.222.378-1.8s.366-1.118.526-1.644c.325-1.051.636-2.128.965-3.379.21-.8.513-1.6.728-2.523a5.046,5.046,0,0,0,.2-.878c-.016-.5-.552-.878-.616-1.412a3,3,0,0,1,.117-.616,2.453,2.453,0,0,1,.089-.613,2.631,2.631,0,0,1,.7-.5,2.394,2.394,0,0,1,.817-.495,1.2,1.2,0,0,1,1.024.4,2.475,2.475,0,0,1,.113.767c-.065.242-.38.262-.434.5a10.619,10.619,0,0,0,.116,1.522c-.055.747-.664,1.181-.841,1.907a14.867,14.867,0,0,0-.2,1.825c-.128,1.21-.276,2.44-.4,3.641a23.473,23.473,0,0,1-.411,2.813c-.077.333-.267.615-.321.907a11.056,11.056,0,0,0,.028,1.242,9.384,9.384,0,0,1-.315,1.753,15.548,15.548,0,0,1-.468,1.583,12.089,12.089,0,0,0-.907,3.237,6.472,6.472,0,0,0,.21,2.522c.341.841,1.173,1.765,1.2,2.963a4.6,4.6,0,0,1-.289,1.413,4.861,4.861,0,0,0-.556,1.846,22.186,22.186,0,0,1,.118,2.733c-.1.806-.315,1.577-.5,2.431-.45,2.146-.335,4.356-.611,6.576a8.085,8.085,0,0,0-.174,1.238,2.865,2.865,0,0,0,.4,1.078,6.739,6.739,0,0,0,1.081,1.232c.769.775,1.5,1.563,2.276,2.351.381.382.727.836,1.052,1.23.342.42.7.867,1.022,1.29a12.993,12.993,0,0,1,1.72,2.874,6.641,6.641,0,0,1,.587,1.705,2.091,2.091,0,0,1-.5,1.673c-1,1.323-2.863,1.848-4.521,2.5-.814.314-1.641.676-2.452,1.059-1.878.878-4.007,1.492-5.283,3a4.379,4.379,0,0,0-.582,1.169c-.33.841-.606,1.664-.932,2.592a4.275,4.275,0,0,0-.323,1.4,1.243,1.243,0,0,1-.057.906c-.325.071-.383-.221-.526-.371a.947.947,0,0,1-.2-.184,5.274,5.274,0,0,1-.175-2.491,2.288,2.288,0,0,0,.087-.736,7.972,7.972,0,0,0-.554-1.613,3.973,3.973,0,0,0-.382-.706,1.47,1.47,0,0,1-.494-1.141,1.755,1.755,0,0,1,1.224-.889c.547-.189,1.137-.314,1.633-.471,1.788-.566,2.58-2.361,3.94-3.611a8.81,8.81,0,0,1,4.9-2.612.77.77,0,0,0-.5-.434c-.537-.345-1.109-.747-1.664-1.12a27.409,27.409,0,0,1-4.027-3.409,9.118,9.118,0,0,0-2.017-1.693" transform="translate(-487 -7882.393)" fill="#fff" fill-rule="evenodd"/>
  </g>
</svg>
