<svg xmlns="http://www.w3.org/2000/svg" xmlns:xlink="http://www.w3.org/1999/xlink" width="240" height="108" viewBox="0 0 240 108">
  <defs>
    <clipPath id="clip-path">
      <rect id="Rectangle_7505" data-name="Rectangle 7505" width="161.673" height="62.182" fill="#fff"/>
    </clipPath>
    <clipPath id="clip-Artboard_13">
      <rect width="240" height="108"/>
    </clipPath>
  </defs>
  <g id="Artboard_13" data-name="Artboard – 13" clip-path="url(#clip-Artboard_13)">
    <g id="hyrecar" transform="translate(39.809 23.545)" clip-path="url(#clip-path)">
      <g id="Layer_x0020_1" transform="translate(0 14.509)">
        <g id="_1287522552416" transform="translate(0 0)">
          <path id="Path_116136" data-name="Path 116136" d="M0,66V95.345H7.293V83.085H18.534V95.345h7.154V66H18.534V77.089H12.982c-2.086,0-3.621-.137-5.69-.137V66.018Z" transform="translate(0 -64.84)" fill="#fff" fill-rule="evenodd"/>
          <path id="Path_116137" data-name="Path 116137" d="M5488.728,24.974c-1.018-.539-3.534-3.465-4.67-4.241-1.6.379-4.932,3.952-10.622,1.6-9.119-3.741-4.792-20.293,7.518-16.017l2.827,1.555,4.671-4.521c-9.726-10.62-32.381-2.227-25.847,17.084a13.756,13.756,0,0,0,3.966,5.672c5.172,5,17.618,5.658,22.178-1.156Z" transform="translate(-5367.283 1.291)" fill="#fff" fill-rule="evenodd"/>
          <path id="Path_116138" data-name="Path 116138" d="M1629.828,589.671c-3.206,0-2.448-.878-2.862,2.1a28.759,28.759,0,0,0-.359,3.586c.829.018,2.6.294,4.087.294,5.552,0,7.814-4.087,9.431-8.672L1648.672,565h-7.325c-.138.569-.293.966-.465,1.569l-3.259,10.467c-.539,1.38-1-.431-1.19-1l-1.672-4.742L1632.582,565H1625l1.31,3.207c.465,1.069.914,2.156,1.4,3.276.932,2.224,1.761,4.276,2.741,6.448l2.741,6.448c.518,1.5,0,2.207-.6,3.38a2.77,2.77,0,0,1-2.776,1.9Z" transform="translate(-1596.984 -555.236)" fill="#fff" fill-rule="evenodd"/>
          <path id="Path_116139" data-name="Path 116139" d="M4053.568,539.483c.552-5.017,8.363-5,8.9-.137ZM4047,542.1c0,11.793,16.375,14.845,20.879,6.431l-4.81-2.913c-1.658,3.586-8.224,3.448-9.482-1.762l14.826-.207c.053,0,1.037-11.815-9.569-12.655-3.723,0-6.171.726-8.792,3.328a11.655,11.655,0,0,0-3.034,7.773Z" transform="translate(-3977.225 -521.823)" fill="#fff" fill-rule="evenodd"/>
          <path id="Path_116140" data-name="Path 116140" d="M7143.431,545.978c0-2.673,5.621-2.487,7.294-2.487C7149.087,550.546,7143.431,548.546,7143.431,545.978Zm-5.395-11.676a28.376,28.376,0,0,0,3.5,3.952c3.054-1.6,8.586-3.952,8.9,1.172-5.03,0-13.432.638-13.432,7.151,0,6.085,7.948,7.793,12.346,4.9.4-.259.726-.569,1.086-.808v1.762h6.431c0-5.189.673-14.224-1.451-17.515-2.81-5.378-11.773-4.414-16.411-1.224a7.3,7.3,0,0,1-.966.638Z" transform="translate(-7013.949 -521.904)" fill="#fff" fill-rule="evenodd"/>
          <path id="Path_116141" data-name="Path 116141" d="M3164.569,535.209v-2.621H3158v20.727h6.916c.052-3.054-.431-10.571.431-12.517,1.052-2.384,3.6-2.81,6.426-2.81l-.052-5.983a7.393,7.393,0,0,0-4.76,1.086,12.136,12.136,0,0,0-2.4,2.138Z" transform="translate(-3103.552 -522.807)" fill="#fff" fill-rule="evenodd"/>
          <path id="Path_116142" data-name="Path 116142" d="M8557.569,535.209v-2.621H8551v20.727h6.916c.052-3.054-.43-10.571.434-12.517,1.051-2.384,3.6-2.81,6.431-2.81l-.054-5.983a7.391,7.391,0,0,0-4.761,1.087,12.1,12.1,0,0,0-2.4,2.138Z" transform="translate(-8403.573 -522.807)" fill="#fff" fill-rule="evenodd"/>
        </g>
      </g>
    </g>
  </g>
</svg>
