<svg xmlns="http://www.w3.org/2000/svg" xmlns:xlink="http://www.w3.org/1999/xlink" width="240" height="108" viewBox="0 0 240 108">
  <defs>
    <clipPath id="clip-path">
      <rect id="Rectangle_7201" data-name="Rectangle 7201" width="135.628" height="60.292" fill="none"/>
    </clipPath>
    <clipPath id="clip-Artboard_8">
      <rect width="240" height="108"/>
    </clipPath>
  </defs>
  <g id="Artboard_8" data-name="Artboard – 8" clip-path="url(#clip-Artboard_8)">
    <g id="Group_69001" data-name="Group 69001" transform="translate(52.537 24.619)" clip-path="url(#clip-path)">
      <path id="Path_115438" data-name="Path 115438" d="M5.8,7.863C8.407,3.74,12.667-.007,17.814.065c1.995-.4,3.837,1.259,5.787.587a11.111,11.111,0,0,1,8.32.4A13.02,13.02,0,0,1,38.851.234c4.651,1,8.175,4.7,10.476,8.691,5.112,8.876,5.96,19.6,4.5,29.568-1.261,7.027-3.959,14.281-9.59,18.966A11.928,11.928,0,0,1,31.9,59.314a12.807,12.807,0,0,1-4.965.962,14.536,14.536,0,0,1-4.5-.962,11.274,11.274,0,0,1-8.944.091c-4.366-1.845-7.347-5.849-9.4-9.98C.331,41.706-.557,32.866.3,24.406A38.767,38.767,0,0,1,5.8,7.863M9.218,10.82c-3.975,8.406-4.7,18.047-3.453,27.168,1.292,8.436,5,17.031,12.057,22.186C23.7,55.9,27.24,49.074,29.011,42.156a50.49,50.49,0,0,0-.416-25.482C27.561,14,29.612,11.5,30.629,9.151c3.631,6.37,4.973,13.777,5.048,21.04-.1,6.955-1.318,14.043-4.653,20.218A11.364,11.364,0,0,0,29.9,52.57c.194.776.9,1.313,1.1,2.09a16.555,16.555,0,0,1-2.1,2.664c-.529-.487-1.041-1-1.6-1.454-.932.587-1.678,1.417-2.543,2.086a11.884,11.884,0,0,0,2.5,2.2,28.708,28.708,0,0,0,9-11.588,46.392,46.392,0,0,0,3.581-19.619c-.2-8.138-2.119-16.547-7.055-23.182A8.993,8.993,0,0,1,35.132,3.09a21.955,21.955,0,0,1,4.473,5.334,41.091,41.091,0,0,1,5.374,22.184,42.688,42.688,0,0,1-2.969,16.469A25.685,25.685,0,0,1,34.538,57.7c-.384,1.2,1.445,1.722,2.183,2.418a28.378,28.378,0,0,0,9.1-11.857c2.628-5.911,3.441-12.445,3.5-18.866a60.986,60.986,0,0,0-.991-9.178c-1.5-7.663-5.174-15.267-11.564-20a18.1,18.1,0,0,0-4.853,4.465c-5.549,7.071-7.9,16.242-7.783,25.131A43.909,43.909,0,0,0,26.05,44.176a2.8,2.8,0,0,1,.2,1.542,54.328,54.328,0,0,1-2.312,5.435c-3.363-5.538-4.7-12.078-5.052-18.479-.339-8.562,1.066-17.547,5.821-24.83a19.452,19.452,0,0,0-1.356-2.09A20.614,20.614,0,0,1,25.6,2.987c.565.513,1.13,1.033,1.7,1.55a23.21,23.21,0,0,1,2.458-2.21A33.009,33.009,0,0,0,27.3.113a22.705,22.705,0,0,0-5.388,5.312c-5.2,6.951-7.266,15.8-7.25,24.368C14.534,38.166,16.375,46.8,21.136,53.8c1,1.393-1.033,2.449-1.666,3.524-4.643-3.941-7.233-9.748-8.712-15.536a49.5,49.5,0,0,1,.77-25.979C13.2,10.7,15.885,5.717,20.219,2.387,19.767,1.37,18.636.875,17.845.16,13.987,2.748,11.274,6.722,9.217,10.82" transform="translate(0 0)" fill="#fff"/>
      <path id="Path_115439" data-name="Path 115439" d="M68.84,12.515c4.313-.322,8.642.07,12.963-.12.791,0,1.583,0,2.384.009.009.359.03,1.082.037,1.445a4.973,4.973,0,0,0-2.846,1.12,4.056,4.056,0,0,0-.678,2.561c-.075,7.82.091,15.639-.085,23.451-.386,2.754-1.434,5.712-3.961,7.182A12.59,12.59,0,0,1,66.1,48.83c-2.974-1.13-4.565-4.271-4.917-7.279.593,0,1.177-.013,1.767-.017a6.767,6.767,0,0,0,1.92,3.16c1.83,1.719,5.221,1.883,6.828-.211a8.917,8.917,0,0,0,1.2-5.175c0-7.167.013-14.333,0-21.5-.017-1.215-.108-2.817-1.4-3.38a14.22,14.22,0,0,0-2.618-.565c-.009-.339-.021-1.017-.025-1.35" transform="translate(-2.007 -0.406)" fill="#fff"/>
      <path id="Path_115440" data-name="Path 115440" d="M87.267,12.495c5.143-.042,10.285-.19,15.428.02-.017.452-.03.9-.042,1.356C100.94,14,98.592,14.5,98.7,16.7c-.235,7.523-.033,15.061-.1,22.588.042,1.987-.206,4.188.983,5.916a13.42,13.42,0,0,0,6.229.565,6.781,6.781,0,0,0,5.312-4.238c.62,0,1.244.009,1.865.021-.882,2.346-1.661,4.73-2.486,7.1H87.3c-.013-.452-.02-.9-.025-1.346a5.256,5.256,0,0,0,2.788-1.069,4.025,4.025,0,0,0,.743-2.78q.006-12.833,0-25.657a4.188,4.188,0,0,0-.735-2.871,5.11,5.11,0,0,0-2.768-1.074c-.017-.452-.028-.9-.041-1.356" transform="translate(-2.862 -0.407)" fill="#fff"/>
      <path id="Path_115441" data-name="Path 115441" d="M113.6,12.553c3.73-.331,7.473.024,11.2-.157a29.149,29.149,0,0,1,4.3.145c-.009.434-.017.871-.02,1.31-1.162.281-2.59.211-3.438,1.187a7.107,7.107,0,0,0-.624,3.652q-.017,10.935,0,21.87a9.594,9.594,0,0,0,.574,4.032c.722,1.1,2.169,1.183,3.363,1.231,1.789.017,3.719.207,5.35-.678a7.486,7.486,0,0,0,3.235-3.6h1.827c-.786,2.379-1.644,4.734-2.429,7.114-7.75,0-15.495.016-23.246-.009-.036-.43-.075-.864-.108-1.289a5.517,5.517,0,0,0,2.882-1.139c.834-.821.722-2.1.769-3.181-.025-8.64.03-17.283-.025-25.925a3.261,3.261,0,0,0-1.343-2.754c-.747-.17-1.494-.364-2.242-.533,0-.319-.013-.946-.017-1.264" transform="translate(-3.724 -0.407)" fill="#fff"/>
    </g>
  </g>
</svg>
