<svg xmlns="http://www.w3.org/2000/svg" xmlns:xlink="http://www.w3.org/1999/xlink" width="240" height="108" viewBox="0 0 240 108">
  <defs>
    <clipPath id="clip-Artboard_4">
      <rect width="240" height="108"/>
    </clipPath>
  </defs>
  <g id="Artboard_4" data-name="Artboard – 4" clip-path="url(#clip-Artboard_4)">
    <g id="Group_2" data-name="Group 2" transform="translate(34 25.895)">
      <path id="Path_8" data-name="Path 8" d="M77.537,215.927,71.39,230.563v-4.119H62.951V215.927H56.1v14.917H78.124l1.2-3.2H84.7l1.229,3.2h7.212l-6.367-14.917Zm2.576,8.224,1.834-4.662h.1l1.861,4.662Z" transform="translate(-22.964 -194.278)" fill="#fff" fill-rule="evenodd"/>
      <path id="Path_9" data-name="Path 9" d="M129.518,219.522h8.465v-3.6H122.666v14.917h6.852v-5.326h8.209v-3.6h-8.209v-2.4Z" transform="translate(-49.496 -194.278)" fill="#fff" fill-rule="evenodd"/>
      <path id="Path_10" data-name="Path 10" d="M154.088,215.927l-6.266,14.917h6.853l1.2-3.2h5.371l1.228,3.2h7.211l-6.367-14.917Zm2.575,8.224,1.834-4.662h.1l1.86,4.662Z" transform="translate(-59.522 -194.278)" fill="#fff" fill-rule="evenodd"/>
      <path id="Path_11" data-name="Path 11" d="M204.6,224.474a5.535,5.535,0,0,0-1.995-.718,5.71,5.71,0,0,0,2.966-1.2,3.322,3.322,0,0,0,1.227-2.635,3.431,3.431,0,0,0-2.66-3.4,13.973,13.973,0,0,0-4.552-.588H188.874v14.917h6.853V225.65h1.534a3.02,3.02,0,0,1,1.3.256,1.573,1.573,0,0,1,.921,1.228l.664,3.71h7.161l-1.177-4.324a3.418,3.418,0,0,0-1.533-2.046Zm-6.35-2.073a8.918,8.918,0,0,1-1.148.051h-1.682v-3.2h1.785a4.016,4.016,0,0,1,2.026.4,1.284,1.284,0,0,1,.651,1.165q0,1.277-1.631,1.584Z" transform="translate(-75.884 -194.278)" fill="#fff" fill-rule="evenodd"/>
      <path id="Path_12" data-name="Path 12" d="M235.118,225.089h1.292v2.041c-.221.037-.413.066-.576.09a4.076,4.076,0,0,1-.651.04,4.4,4.4,0,0,1-2.738-.817,3.315,3.315,0,0,1-1.252-2.786,3.848,3.848,0,0,1,1.535-3.272,6.749,6.749,0,0,1,4.143-1.15,12.9,12.9,0,0,1,3.017.356,14.253,14.253,0,0,1,1.714.509v-4a31.761,31.761,0,0,0-3.236-.448q-1.445-.113-2.9-.113a15.462,15.462,0,0,0-7.85,1.711,6.868,6.868,0,0,0-3.017,3.373,6.511,6.511,0,0,0-.511,2.53,6.849,6.849,0,0,0,2.045,5.085q2.761,2.683,8.771,2.682a37.163,37.163,0,0,0,4.078-.205,26.63,26.63,0,0,0,3.337-.562v-7.849h-7.2v2.783Z" transform="translate(-89.918 -194.124)" fill="#fff" fill-rule="evenodd"/>
      <path id="Path_13" data-name="Path 13" d="M268.765,227.348v-2.33h8.388v-3.4h-8.388v-2.165h8.771v-3.529H261.913v14.917h15.8v-3.5Z" transform="translate(-104.996 -194.278)" fill="#fff" fill-rule="evenodd"/>
      <path id="Path_14" data-name="Path 14" d="M32.583,219.651v-19.77h8.7l8.779-19.95H26.288L1,237.371H38.674l4-9.082H28.781l3.8-8.637Z" transform="translate(-1.005 -179.932)" fill="#fff" fill-rule="evenodd"/>
    </g>
  </g>
</svg>
