<svg xmlns="http://www.w3.org/2000/svg" xmlns:xlink="http://www.w3.org/1999/xlink" width="240" height="108" viewBox="0 0 240 108">
  <defs>
    <clipPath id="clip-Artboard_14">
      <rect width="240" height="108"/>
    </clipPath>
  </defs>
  <g id="Artboard_14" data-name="Artboard – 14" clip-path="url(#clip-Artboard_14)">
    <g id="Group_26565" data-name="Group 26565" transform="translate(26.381 29.385)">
      <path id="Path_1" data-name="Path 1" d="M1.381,42.779s99.827-16.54,188.334,0c0,0-82.927-8.135-178.061,7.536Z" transform="translate(-1.381 -5.396)" fill="#fff"/>
      <path id="Path_2" data-name="Path 2" d="M3.762,20.708h9.071V40.091h7.8v7.751H3.762Z" transform="translate(0.908 -19.547)" fill="#fff"/>
      <path id="Path_3" data-name="Path 3" d="M12.841,39.079V39c0-4.225,3.144-6.588,8.067-6.588a16.544,16.544,0,0,1,5,.774l0-.35c0-1.938-1.2-3.06-3.917-3.06a15.341,15.341,0,0,0-5.852,1.2l-1.55-5.852A24.192,24.192,0,0,1,23.5,23.572c4.3,0,7.092.893,8.952,2.754,1.591,1.591,2.211,3.646,2.211,6.708V45.088h-8.8V42.96a7.984,7.984,0,0,1-6.088,2.632c-4.07,0-6.941-2.327-6.941-6.514m13.145-1.82v-.892a6.075,6.075,0,0,0-2.018-.347,2.409,2.409,0,0,0-2.713,2.363v.076a1.969,1.969,0,0,0,2.016,2.056c1.551,0,2.715-1.24,2.715-3.256" transform="translate(9.636 -16.792)" fill="#fff"/>
      <path id="Path_4" data-name="Path 4" d="M24.859,39.415l8.608-8.761H25.209v-6.9H45.636V29.26l-8.643,8.76h8.646v6.9H24.859Z" transform="translate(21.19 -16.622)" fill="#fff"/>
      <path id="Path_5" data-name="Path 5" d="M36.387,49.028l2.559-6.007a9.584,9.584,0,0,0,3.875,1.395,3.056,3.056,0,0,0,1.434-.312L35.961,23.751h9.111l3.682,11.166,3.376-11.166H61.08l-7.326,19.7c-2.056,5.541-4.305,7.793-9.188,7.793a16.761,16.761,0,0,1-8.179-2.208" transform="translate(31.862 -16.621)" fill="#fff"/>
      <path id="Path_6" data-name="Path 6" d="M48.232,37.982V37.9c0-6.71,4.034-11.164,9.03-11.164a7.9,7.9,0,0,1,6.359,2.9V20.116h8.8v28.3h-8.8v-2.6c-1.432,1.551-3.064,3.1-6.278,3.1-5.121,0-9.111-4.458-9.111-10.934m15.587-.11v-.082a3.537,3.537,0,1,0-7.055,0v.082a3.537,3.537,0,1,0,7.055,0" transform="translate(43.658 -20.116)" fill="#fff"/>
      <path id="Path_7" data-name="Path 7" d="M61.495,39.079V39c0-4.225,3.14-6.588,8.063-6.588a16.529,16.529,0,0,1,5,.773v-.349c0-1.938-1.2-3.06-3.915-3.06a15.358,15.358,0,0,0-5.855,1.2l-1.551-5.852a24.242,24.242,0,0,1,8.918-1.551c4.3,0,7.094.893,8.957,2.754,1.589,1.591,2.208,3.646,2.208,6.708V45.088h-8.8V42.961a7.985,7.985,0,0,1-6.088,2.633c-4.07,0-6.937-2.327-6.937-6.514m13.141-1.82v-.893a6.062,6.062,0,0,0-2.016-.347,2.408,2.408,0,0,0-2.713,2.363v.076a1.969,1.969,0,0,0,2.016,2.056c1.55,0,2.713-1.24,2.713-3.256" transform="translate(56.409 -16.793)" fill="#fff"/>
      <path id="Path_8" data-name="Path 8" d="M73.107,49.028l2.559-6.007a9.592,9.592,0,0,0,3.872,1.395,3.061,3.061,0,0,0,1.438-.312L72.682,23.751h9.111l3.682,11.166,3.369-11.166H97.8l-7.326,19.7c-2.051,5.541-4.3,7.793-9.188,7.793a16.743,16.743,0,0,1-8.179-2.208" transform="translate(67.164 -16.621)" fill="#fff"/>
      <path id="Path_9" data-name="Path 9" d="M84.8,42.605l2.981-5a15.3,15.3,0,0,0,7.834,2.365c.852,0,1.279-.194,1.279-.694V39.2c0-.426-.386-.7-2.52-1.241-5.35-1.32-8.642-2.756-8.642-7.137v-.082c0-4.651,3.719-7.247,9.224-7.247a18.786,18.786,0,0,1,9.5,2.442l-2.789,5.235a15.631,15.631,0,0,0-6.747-1.977c-.852,0-1.241.23-1.241.656v.076c0,.426.465.7,2.6,1.241,5.35,1.313,8.565,2.789,8.565,7.131v.082c0,4.611-3.452,7.286-9.188,7.286A19.386,19.386,0,0,1,84.8,42.605" transform="translate(78.818 -16.866)" fill="#fff"/>
      <path id="Path_10" data-name="Path 10" d="M33.474,43.993H31.013V41.622h7.728v2.372H36.28v6H33.474Z" transform="translate(27.1 0.558)" fill="#fff"/>
      <path id="Path_11" data-name="Path 11" d="M35.387,41.622h2.8v2.953h2.559V41.622h2.8V50h-2.8V47H38.187v3h-2.8Z" transform="translate(31.311 0.558)" fill="#fff"/>
      <path id="Path_12" data-name="Path 12" d="M40.151,41.622h7.137v2.3H42.9v.848h4.091v2.022H42.9v.91h4.45V50h-7.2Z" transform="translate(35.89 0.558)" fill="#fff"/>
      <path id="Path_13" data-name="Path 13" d="M45.987,41.618h4.088a4.075,4.075,0,0,1,3.016.957,2.618,2.618,0,0,1,.763,1.985v.025a2.707,2.707,0,0,1-1.65,2.559l1.95,2.848h-3.2L49.38,47.6h-.593v2.393h-2.8Zm4,3.985c.674,0,1.079-.3,1.079-.816v-.024c0-.537-.416-.8-1.066-.8H48.787v1.641Z" transform="translate(41.501 0.562)" fill="#fff"/>
      <path id="Path_14" data-name="Path 14" d="M50.028,41.622h3.134l1.628,4.7,1.624-4.7H59.5l-3.4,8.432H53.426Z" transform="translate(45.385 0.558)" fill="#fff"/>
      <path id="Path_15" data-name="Path 15" d="M59.058,41.591h2.777l3.527,8.436H62.327L61.882,48.9H58.951l-.432,1.124H55.53Zm2.133,5.323-.767-2.03-.767,2.03Z" transform="translate(50.675 0.529)" fill="#fff"/>
      <path id="Path_16" data-name="Path 16" d="M60.614,46.241V41.622h2.848v4.583c0,1.039.539,1.481,1.293,1.481s1.293-.4,1.293-1.422V41.622H68.9v4.56c0,2.856-1.663,3.985-4.164,3.985s-4.117-1.153-4.117-3.927" transform="translate(55.562 0.559)" fill="#fff"/>
      <path id="Path_17" data-name="Path 17" d="M67.7,43.993H65.236V41.622h7.729v2.372H70.5v6H67.7Z" transform="translate(60.005 0.558)" fill="#fff"/>
      <path id="Path_18" data-name="Path 18" d="M69.616,41.622h2.8v2.953h2.563V41.622h2.795V50H74.977V47H72.414v3h-2.8Z" transform="translate(64.216 0.558)" fill="#fff"/>
      <path id="Path_19" data-name="Path 19" d="M74.28,45.92V45.9a4.576,4.576,0,0,1,9.142-.021V45.9a4.577,4.577,0,0,1-9.142.024m6.317,0V45.9A1.794,1.794,0,0,0,78.835,44,1.77,1.77,0,0,0,77.1,45.875V45.9a1.792,1.792,0,0,0,1.761,1.887A1.765,1.765,0,0,0,80.6,45.92" transform="translate(68.7 0.474)" fill="#fff"/>
      <path id="Path_20" data-name="Path 20" d="M79.446,41.618h4.089a4.079,4.079,0,0,1,3.016.957,2.625,2.625,0,0,1,.763,1.985v.025a2.7,2.7,0,0,1-1.651,2.559l1.948,2.847H84.42L82.843,47.6h-.6v2.393h-2.8ZM83.453,45.6c.671,0,1.077-.3,1.077-.816v-.024c0-.537-.418-.8-1.066-.8H82.242v1.641Z" transform="translate(73.666 0.562)" fill="#fff"/>
      <rect id="Rectangle_1" data-name="Rectangle 1" width="2.798" height="8.372" transform="translate(161.913 42.184)" fill="#fff"/>
      <path id="Path_21" data-name="Path 21" d="M88.276,43.993H85.811V41.622h7.729v2.372H91.078v6h-2.8Z" transform="translate(79.785 0.558)" fill="#fff"/>
      <path id="Path_22" data-name="Path 22" d="M93.008,47.03l-3.161-5.409h3.134l1.436,2.754,1.448-2.754h3.1L95.805,47v3h-2.8Z" transform="translate(83.666 0.558)" fill="#fff"/>
    </g>
  </g>
</svg>
