<svg xmlns="http://www.w3.org/2000/svg" xmlns:xlink="http://www.w3.org/1999/xlink" width="240" height="108" viewBox="0 0 240 108">
  <defs>
    <clipPath id="clip-Artboard_15">
      <rect width="240" height="108"/>
    </clipPath>
  </defs>
  <g id="Artboard_15" data-name="Artboard – 15" clip-path="url(#clip-Artboard_15)">
    <g id="LeapFrog" transform="translate(66.833 1.953)">
      <g id="Group_69267" data-name="Group 69267">
        <path id="Path_116328" data-name="Path 116328" d="M48.613,78.693C31.06,83.936-3,83.8-12.436,53.662-20.6,27.628-8.971,1.139,17.382-6.749,42.23-14.226,69.86,2.188,76.744,24.483c6.611,21.064-2.6,46.55-28.131,54.21M70.635,1.5C60.194-6.885,46.06-12.311,30.786-13.724,16.242-15.047,1.333-10.4-7.284-1.825c-8.207,8.161-12.857,23.982-12.4,42.265.274,11.125,2.69,31.277,15.593,41.216,15.137,11.581,36.474,12.265,57.128,1.778C74.1,72.811,88.6,53.252,88.279,35.972c-.182-13.4-6.292-25.3-17.644-34.468" transform="translate(19.716 13.947)" fill="#fff"/>
        <path id="Path_116329" data-name="Path 116329" d="M86.466,81.415a4.409,4.409,0,0,1-1.915,1.094c-2.644.821-4.65-.638-6.018-5.061-1.413-4.6.046-7.751,2.052-8.389a4.41,4.41,0,0,1,1.915-.228c.319.775,3.921,12.356,3.967,12.584M79.627,64.682c-4.377,1.368-9.073,6.064-6.337,14.909,2.234,7.021,7.66,8.891,11.9,7.523a9.253,9.253,0,0,0,2.69-1.322c.593,1.778.41,4.377-2.508,5.289a10.731,10.731,0,0,1-6.657-.091l-.274-.091.638,4.6.091.046a13.56,13.56,0,0,0,7.842-.137c5.289-1.641,7.8-5.745,5.745-12.4,0,0-5.654-18.283-5.745-18.6a12.914,12.914,0,0,0-7.386.274M64.809,88.892a2.2,2.2,0,0,1-1.915-.228c-1.368-.729-2.6-2.644-3.419-5.426-.912-2.781-.957-5.106-.274-6.474a2.511,2.511,0,0,1,1.459-1.277,2.416,2.416,0,0,1,2.006.228c1.368.729,2.644,2.69,3.465,5.426,1.277,4.195.821,7.113-1.322,7.751M59.247,70.974C53.913,72.615,51.815,78,53.958,84.925c1.231,3.967,3.328,6.7,5.836,8.024a8.3,8.3,0,0,0,6.383.456,8.069,8.069,0,0,0,5.061-4.1c1.368-2.6,1.459-6.018.319-9.848-2.143-6.93-6.885-10.122-12.31-8.48m-9.438,2.918-.137.046a7.245,7.245,0,0,0-4.1,4.878c-.274-.593-1.322-2.736-1.322-2.736L39.87,77.448l6.7,21.611,5.334-1.641s-4.331-13.86-4.331-14a8.48,8.48,0,0,1,4.7-4.7ZM31.618,103.71l5.517-1.687s-3.055-9.939-3.192-10.258c.319-.091,6.976-2.143,6.976-2.143l-2.234-4.514s-5.881,1.824-6.2,1.961c-.091-.319-1.687-5.471-1.778-5.79.319-.091,7.933-2.462,7.933-2.462L37.18,74.074l-13.5,4.149ZM72.469,40.335c1.368-.41,4.195-.365,6.018,5.334,1.368,4.423.684,7.2-1.961,8.07a3.854,3.854,0,0,1-2.143.137c-.046-.228-3.784-12.265-3.921-12.538a6.375,6.375,0,0,1,2.006-1m3.237,17.918a10.576,10.576,0,0,0,2.964-.41c3.739-1.14,7.751-5.836,5.152-14.271-1.915-6.337-6.565-9.483-12.584-7.66a15.372,15.372,0,0,0-7.021,4.149c.228.729,7.979,25.669,7.979,25.669l5.061-2.462s-1.413-4.559-1.55-5.015m-16.094-5.79,1.915,6.064a6.845,6.845,0,0,1-2.006.957c-1.368.41-2.918.091-3.374-1.459-.684-2.234.547-3.921,3.465-5.562m1.049,11.4a15.518,15.518,0,0,0,7.021-4.149c-.137-.456-4.195-13.632-4.195-13.632C62.028,41.293,59.292,39.7,54.6,41.2a17.441,17.441,0,0,0-6.565,3.921l-.091.091,2.1,4.286.228-.228a10.458,10.458,0,0,1,4.6-3.283,2.729,2.729,0,0,1,2.1,0,3.125,3.125,0,0,1,1.322,1.96,8.31,8.31,0,0,1,.274.821c-6.52,3.283-8.754,7.158-7.477,11.216,1.231,4.423,5.881,5.015,9.575,3.875M38.092,50.639c1.6-.547,3.283,1.094,4.331,4.195-.319.091-5.2,1.641-5.562,1.733-.684-3.237-.228-5.471,1.231-5.927M44.52,68.877A14.428,14.428,0,0,0,50.9,64.728c-.365-.775-1.824-3.784-2.052-4.149a10.9,10.9,0,0,1-5.015,3.784c-3.009.957-4.833-1.687-5.881-4.1.365-.091,10.9-3.374,10.9-3.374l-.046-.137-.456-1.733c-1.277-4.058-3.283-6.793-5.654-8.07a7.21,7.21,0,0,0-5.7-.365,7.59,7.59,0,0,0-4.65,3.784c-1.368,2.6-1.6,6.2-.365,10.076,2.188,7.158,6.885,10.213,12.538,8.435M26.739,68.6c-.091-.365-6.337-20.334-6.337-20.334l-5.517,1.687,7.842,25.167,13.176-4.1-2.28-4.65c0,.046-6.565,2.1-6.885,2.234" transform="translate(-2.909 -18.32)" fill="#fff"/>
        <path id="Path_116330" data-name="Path 116330" d="M231.124,112.546l-.41.137.319.957.41-.137c.365-.091.547-.319.41-.684-.091-.274-.365-.365-.729-.274m1.733,2.508L231.443,114l-.319.091.41,1.322-.547.137-1.049-3.192,1-.319a1,1,0,0,1,1.413.593.931.931,0,0,1-.365,1.094l1.368,1Zm-2.143-3.875a2.715,2.715,0,0,0,1.687,5.152,2.475,2.475,0,0,0,1.6-3.374,2.523,2.523,0,0,0-3.283-1.778m1.778,5.471a2.9,2.9,0,0,1-3.784-1.96,2.845,2.845,0,0,1,1.915-3.83,3.043,3.043,0,0,1,1.869,5.79" transform="translate(-142.597 -67.551)" fill="#fff"/>
      </g>
    </g>
  </g>
</svg>
