<svg xmlns="http://www.w3.org/2000/svg" width="153.314" height="22.876" viewBox="0 0 153.314 22.876">
    <g data-name="Group 20020">
        <path data-name="Path 111270" d="M-.835-2.948A2.5 2.5 0 0 0-.1-.882 3.037 3.037 0 0 0 1.846-.3 5.168 5.168 0 0 0 3-.42a5.216 5.216 0 0 0 1.157-.431V1.18a5.324 5.324 0 0 1-1.31.508 6.6 6.6 0 0 1-1.557.169A6.269 6.269 0 0 1-.5 1.614 3.664 3.664 0 0 1-1.93.828a3.622 3.622 0 0 1-.936-1.4A5.641 5.641 0 0 1-3.2-2.64v-9.616h-2.228v-2.1H-3.2v-4.804h2.365v4.809H4.22v2.1H-.835z" transform="translate(5.428 20.918)" style="fill:#999"/>
    </g>
    <g data-name="Group 20021">
        <path data-name="Path 111271" d="M-2.3-1.351a8.18 8.18 0 0 0-.445-2.065 5.486 5.486 0 0 0-.98-1.726 4.733 4.733 0 0 0-1.53-1.185 4.684 4.684 0 0 0-2.1-.447 4.5 4.5 0 0 0-1.931.415 5.044 5.044 0 0 0-1.559 1.14 6 6 0 0 0-1.1 1.71 7.257 7.257 0 0 0-.555 2.158zM-11.885 2.7a5.531 5.531 0 0 0 1.264 1.692A5.32 5.32 0 0 0-8.9 5.446a5.709 5.709 0 0 0 2 .355 6.113 6.113 0 0 0 2.852-.617A8.431 8.431 0 0 0-1.867 3.55l1.479 1.326a9.74 9.74 0 0 1-2.743 2.173 8.094 8.094 0 0 1-3.822.817 7.954 7.954 0 0 1-3.083-.6 7.677 7.677 0 0 1-2.538-1.692A8.093 8.093 0 0 1-14.3 2.937a8.754 8.754 0 0 1-.64-3.391 9.215 9.215 0 0 1 .57-3.246 8.179 8.179 0 0 1 1.591-2.66 7.413 7.413 0 0 1 2.42-1.772 7.224 7.224 0 0 1 3.068-.647 7.2 7.2 0 0 1 3.143.659 6.888 6.888 0 0 1 2.343 1.806A7.851 7.851 0 0 1-.357-3.635a10.775 10.775 0 0 1 .493 3.3V0a2.862 2.862 0 0 1-.03.4H-12.5a6.563 6.563 0 0 0 .617 2.3" transform="translate(26.711 15.006)" style="fill:#999"/>
    </g>
    <g data-name="Group 20022">
        <path data-name="Path 111272" d="M-2.172-2.867a7.488 7.488 0 0 1-3.776.876A7.936 7.936 0 0 1-9.2-2.654a8.208 8.208 0 0 1-2.589-1.788A8.158 8.158 0 0 1-13.5-7.077a8.392 8.392 0 0 1-.616-3.206A8.507 8.507 0 0 1-13.5-13.5a8.3 8.3 0 0 1 1.71-2.666 8.1 8.1 0 0 1 2.589-1.8 7.936 7.936 0 0 1 3.252-.663 9.129 9.129 0 0 1 2.065.216 7.714 7.714 0 0 1 1.692.6 7.826 7.826 0 0 1 1.422.906 12.543 12.543 0 0 1 1.2 1.11l-1.572 1.667a11.261 11.261 0 0 0-2.078-1.699 5.077 5.077 0 0 0-2.758-.709 5.369 5.369 0 0 0-2.25.476 5.526 5.526 0 0 0-1.818 1.323 6.164 6.164 0 0 0-1.2 1.967 6.664 6.664 0 0 0-.432 2.414 6.58 6.58 0 0 0 .447 2.429A6.207 6.207 0 0 0-10-5.948a5.662 5.662 0 0 0 1.85 1.323 5.625 5.625 0 0 0 2.327.476A5.4 5.4 0 0 0-3.1-4.826 9.173 9.173 0 0 0-.955-6.518L.556-5.1a10.771 10.771 0 0 1-2.728 2.233" transform="translate(43.521 24.863)" style="fill:#999"/>
    </g>
    <g data-name="Group 20023">
        <path data-name="Path 111273" d="M-.431-4.091H-2.8v-22.5h2.369v9.34a7.508 7.508 0 0 1 2.1-2.2 5.722 5.722 0 0 1 3.36-.909 6.719 6.719 0 0 1 2.571.46 5.338 5.338 0 0 1 1.911 1.31 5.775 5.775 0 0 1 1.2 2.019 7.685 7.685 0 0 1 .416 2.589v9.889H8.754V-13.4a5.129 5.129 0 0 0-1.14-3.514 4.123 4.123 0 0 0-3.267-1.295 5.022 5.022 0 0 0-1.9.355 4.423 4.423 0 0 0-1.519 1.016 4.585 4.585 0 0 0-1 1.588 5.633 5.633 0 0 0-.355 2.034z" transform="translate(50.179 26.593)" style="fill:#999"/>
    </g>
    <g data-name="Group 20024">
        <path data-name="Path 111274" d="M-1.956-1.828a7.148 7.148 0 0 0-1.372-.447 7.406 7.406 0 0 0-1.619-.169 4.183 4.183 0 0 0-2.369.586 1.922 1.922 0 0 0-.863 1.692V-.1a1.731 1.731 0 0 0 .706 1.479 3.032 3.032 0 0 0 1.849.521 4.146 4.146 0 0 0 2.666-.8 2.558 2.558 0 0 0 1-2.1zm-.092 6.658V3.043a6.515 6.515 0 0 1-2.066 1.523 6.8 6.8 0 0 1-2.929.57 7.342 7.342 0 0 1-2.2-.323 5.176 5.176 0 0 1-1.807-.971 4.646 4.646 0 0 1-1.218-1.587 5 5 0 0 1-.445-2.174V.022a5.182 5.182 0 0 1 .493-2.343 4.5 4.5 0 0 1 1.372-1.634 6.154 6.154 0 0 1 2.1-.971 10.492 10.492 0 0 1 2.7-.324 11.555 11.555 0 0 1 2.2.185 13.82 13.82 0 0 1 1.834.493v-.278a2.808 2.808 0 0 0-.898-2.25 3.962 3.962 0 0 0-2.651-.771 11.011 11.011 0 0 0-2.389.231 16.1 16.1 0 0 0-2.173.663l-1.175-3.575a18.416 18.416 0 0 1 2.835-.956 14.932 14.932 0 0 1 3.576-.37q3.853 0 5.61 1.88a7.379 7.379 0 0 1 1.762 5.242V4.83z" transform="translate(76.301 17.671)" style="fill:#999"/>
    </g>
    <g data-name="Group 20025">
        <path data-name="Path 111275" d="M-1.9-4.091v-9.193a3.705 3.705 0 0 0-.74-2.506 2.637 2.637 0 0 0-2.1-.846 2.782 2.782 0 0 0-2.142.846 3.559 3.559 0 0 0-.786 2.506v9.193h-4.682v-22.5h4.685v8.341a10.085 10.085 0 0 1 .878-1.009 6.13 6.13 0 0 1 1.064-.854 5.287 5.287 0 0 1 1.295-.592 5.452 5.452 0 0 1 1.6-.217 5.278 5.278 0 0 1 4.148 1.633 6.5 6.5 0 0 1 1.464 4.5v10.7z" transform="translate(94.555 26.593)" style="fill:#999"/>
    </g>
    <g data-name="Group 20026">
        <path data-name="Path 111276" d="M-1.917-.86a3.073 3.073 0 0 0-2.373-.972 3.147 3.147 0 0 0-2.389.956 4.8 4.8 0 0 0-1.185 2.558h7.056A4.564 4.564 0 0 0-1.917-.86M3.74 4.025q-.016.247-.047.586H-7.8A3.946 3.946 0 0 0-6.4 7.03a4.2 4.2 0 0 0 2.635.817 5.226 5.226 0 0 0 2.1-.4 7.147 7.147 0 0 0 1.911-1.3l2.676 2.374a8.31 8.31 0 0 1-2.835 2.27 8.794 8.794 0 0 1-3.915.817 9.408 9.408 0 0 1-3.436-.617 7.937 7.937 0 0 1-2.743-1.757 8.117 8.117 0 0 1-1.8-2.7 8.947 8.947 0 0 1-.647-3.469v-.06a9.249 9.249 0 0 1 .6-3.329 8.469 8.469 0 0 1 1.68-2.74A7.89 7.89 0 0 1-7.6-4.914a7.931 7.931 0 0 1 3.31-.676 8.044 8.044 0 0 1 3.576.74A7.277 7.277 0 0 1 1.8-2.864 8.28 8.28 0 0 1 3.277 0a11.86 11.86 0 0 1 .476 3.375v.065c0 .226-.005.423-.015.586" transform="translate(112.448 11.264)" style="fill:#999"/>
    </g>
    <g data-name="Group 20027">
        <path data-name="Path 111277" d="M-1.956-1.828a7.148 7.148 0 0 0-1.372-.447 7.406 7.406 0 0 0-1.619-.169 4.183 4.183 0 0 0-2.369.586 1.922 1.922 0 0 0-.863 1.692V-.1a1.731 1.731 0 0 0 .706 1.479 3.032 3.032 0 0 0 1.849.521 4.146 4.146 0 0 0 2.666-.8 2.558 2.558 0 0 0 1-2.1zm-.092 6.658V3.043a6.515 6.515 0 0 1-2.066 1.523 6.8 6.8 0 0 1-2.929.57 7.342 7.342 0 0 1-2.2-.323 5.176 5.176 0 0 1-1.807-.971 4.646 4.646 0 0 1-1.218-1.587 5 5 0 0 1-.445-2.174V.022a5.182 5.182 0 0 1 .493-2.343 4.5 4.5 0 0 1 1.372-1.634 6.154 6.154 0 0 1 2.1-.971 10.492 10.492 0 0 1 2.7-.324 11.555 11.555 0 0 1 2.2.185 13.82 13.82 0 0 1 1.834.493v-.278a2.808 2.808 0 0 0-.898-2.25 3.962 3.962 0 0 0-2.651-.771 11.011 11.011 0 0 0-2.389.231 16.1 16.1 0 0 0-2.173.663l-1.175-3.575a18.416 18.416 0 0 1 2.835-.956 14.932 14.932 0 0 1 3.576-.37q3.853 0 5.61 1.88a7.379 7.379 0 0 1 1.762 5.242V4.83z" transform="translate(130.797 17.671)" style="fill:#999"/>
    </g>
    <g data-name="Group 20028">
        <path data-name="Path 111278" d="M-2.315-2.584a5.246 5.246 0 0 0-.323-1.878A4.644 4.644 0 0 0-3.5-5.919a3.728 3.728 0 0 0-1.269-.932 3.752 3.752 0 0 0-1.557-.326 3.749 3.749 0 0 0-1.557.326 3.883 3.883 0 0 0-1.279.931 4.516 4.516 0 0 0-.874 1.444 5.223 5.223 0 0 0-.324 1.893v.062a5.255 5.255 0 0 0 .323 1.878A4.485 4.485 0 0 0-9.158.814a3.892 3.892 0 0 0 1.279.931 3.748 3.748 0 0 0 1.557.326 3.751 3.751 0 0 0 1.553-.326A3.732 3.732 0 0 0-3.5.814a4.642 4.642 0 0 0 .862-1.458 5.246 5.246 0 0 0 .323-1.878zm-.062 8.292V3.355a7.417 7.417 0 0 1-2.08 1.911 5.765 5.765 0 0 1-3.067.75 7.341 7.341 0 0 1-2.8-.555 6.938 6.938 0 0 1-2.4-1.649 8.214 8.214 0 0 1-1.682-2.681 9.815 9.815 0 0 1-.63-3.653v-.062a9.815 9.815 0 0 1 .63-3.653 8.361 8.361 0 0 1 1.656-2.681 6.79 6.79 0 0 1 2.39-1.649 7.411 7.411 0 0 1 2.835-.555 5.918 5.918 0 0 1 3.094.734 8.244 8.244 0 0 1 2.054 1.712v-8.118h4.685v22.5z" transform="translate(151.005 16.794)" style="fill:#999"/>
    </g>
</svg>
