<svg xmlns="http://www.w3.org/2000/svg" xmlns:xlink="http://www.w3.org/1999/xlink" width="240" height="108" viewBox="0 0 240 108">
  <defs>
    <clipPath id="clip-Artboard_21">
      <rect width="240" height="108"/>
    </clipPath>
  </defs>
  <g id="Artboard_21" data-name="Artboard – 21" clip-path="url(#clip-Artboard_21)">
    <g id="Group_16" data-name="Group 16" transform="translate(38.127 25.057)" opacity="0.997">
      <path id="Path_62" data-name="Path 62" d="M20.219,38.784c-1.742,7.1-5.361,18.361-.268,18.629,5.093.134,6.3-6.031,6.3-6.031s-2.546-.67-1.474-5.361c.268-1.206.67-2.68,1.072-4.423,2.814.134,9.247.134,12.866-3.217,4.557-4.021,3.753-9.784.536-12.464s-9.784-4.959-17.557-2.68S10.436,30.34,10.3,33.959s2.01,7.639,6.835,3.887a5.993,5.993,0,0,1,1.608-7.505,13.279,13.279,0,0,1,2.278-1.474A60.635,60.635,0,0,1,20.219,38.784Zm7.773-11.258h.938c2.814,0,5.9,1.474,5.9,5.093,0,3.485-4.423,5.495-8.175,5.629A47.93,47.93,0,0,0,27.992,27.526Z" transform="translate(-10.296 -22.222)" fill="#fff"/>
      <circle id="Ellipse_7" data-name="Ellipse 7" cx="3.351" cy="3.351" r="3.351" transform="translate(33.377 7.448)" fill="#fff"/>
      <circle id="Ellipse_8" data-name="Ellipse 8" cx="3.351" cy="3.351" r="3.351" transform="translate(137.244 7.448)" fill="#fff"/>
      <path id="Path_63" data-name="Path 63" d="M106.327,48.688c1.206,2.412-.536,7.371,2.948,8.577,2.546.8,4.959-.67,6.7-2.546a3.553,3.553,0,0,0,3.217,2.68c2.546.268,5.227-1.34,7.237-3.217a6.318,6.318,0,0,0,5.9,3.217,9.913,9.913,0,0,0,4.825-1.206c1.876,2.948,6.3,0,6.3,0a7.212,7.212,0,0,1-1.34-2.68c-.938-4.021,5.227-26.8,3.351-29.619s-5.495-.938-5.495-.938v4.691a84.216,84.216,0,0,1-1.742,13,4.822,4.822,0,0,0-2.948-1.206c-5.361-.536-8.979,3.351-9.918,8.309a15.147,15.147,0,0,0,0,3.485c-1.876,1.742-3.083,2.144-3.887.536-1.072-2.278,2.814-8.577.938-11.258s-5.495-.938-5.495-.938a4.988,4.988,0,0,1,.268,2.412c-.134,1.742-1.072,6.031-1.34,8.041v.134c-2.68,2.546-5.093,3.753-5.093,1.206,0-1.34.4-2.814-.67-4.557a5.219,5.219,0,0,0-4.289-1.742c2.814-1.072,5.495-1.474,6.835-3.082a3.821,3.821,0,0,0,.134-4.691c-.8-.938-2.546-.536-2.546-.536-1.072,2.144-5.361,5.093-6.969,6.031,1.474-7.907,3.351-17.155,2.278-18.9-1.876-2.814-5.495-.938-5.495-.938v4.691c-.268,6.7-2.68,18.227-3.082,20.1-2.948,14.608,6.433,8.309,6.433,8.309a7.213,7.213,0,0,1-1.34-2.68,20.9,20.9,0,0,1,.4-5.763C104.049,47.079,105.389,46.677,106.327,48.688Zm24.124-.938c.8-3.887,2.546-5.629,4.557-5.227,1.742.4,2.412,3.217,1.608,6.433s-2.278,5.629-4.021,5.361S129.513,51.636,130.451,47.749Z" transform="translate(18.989 -22.209)" fill="#fff"/>
      <path id="Path_64" data-name="Path 64" d="M144.7,52.638c-5.9-.134-21.845-.67-38.6-.8-4.825,0-13.4-.134-13.4-.134l4.289,4.825h11.66c21.577.268,38.732.8,38.732.8h0a3.072,3.072,0,0,0-1.206-4.155A4.8,4.8,0,0,0,144.7,52.638Z" transform="translate(17.739 -12.221)" fill="#fff"/>
      <path id="Path_65" data-name="Path 65" d="M119.917,61.722c1.474-8.309,3.619-19.567,2.412-21.309-1.876-2.814-5.495-.938-5.495-.938v4.691c0,.67-.134,1.34-.134,2.01a7.888,7.888,0,0,1-3.485,6.031c-1.206.8-2.01.67-2.546-.536-1.072-2.278,2.814-8.577.938-11.258s-5.495-.938-5.495-.938a4.988,4.988,0,0,1,.268,2.412c-.134,1.474-.8,5.093-1.206,7.237-2.814,3.082-4.825,4.691-5.9,2.546-1.072-2.278,2.814-8.577.938-11.258A3.409,3.409,0,0,0,97,38.938a5.62,5.62,0,0,0-2.948.67,10.972,10.972,0,0,0-3.619,2.948,4.244,4.244,0,0,0-.536-2.144C88.02,37.6,84.4,39.474,84.4,39.474a11.868,11.868,0,0,0-3.753,3.082,3.933,3.933,0,0,0-.536-2.144c-1.876-2.814-5.495-.938-5.495-.938a4.988,4.988,0,0,1,.268,2.412c-.134,1.474-.8,4.825-1.206,6.969-3.082,3.351-6.3,5.361-6.3,2.412,0-1.34.4-2.814-.67-4.557a5.219,5.219,0,0,0-4.289-1.742c2.814-1.072,5.495-1.474,6.835-3.082a3.821,3.821,0,0,0,.134-4.691c-.8-.938-2.546-.536-2.546-.536-1.072,2.144-5.361,5.093-6.969,6.031,1.474-7.907,3.351-17.155,2.278-18.9-1.876-2.814-5.495-.938-5.495-.938v4.691c-.268,6.7-2.68,18.227-3.082,20.1a9.05,9.05,0,0,0-.268,1.876c-2.68,2.814-4.557,4.155-5.495,2.144-1.072-2.278,2.814-8.577.938-11.258s-5.495-.938-5.495-.938a4.988,4.988,0,0,1,.268,2.412c-.134,1.742-1.072,6.031-1.34,8.041s-1.072,6.835,3.351,7.371c2.68.268,5.629-1.608,7.639-3.619.67,6.433,6.969,2.278,6.969,2.278a7.212,7.212,0,0,1-1.34-2.68,20.9,20.9,0,0,1,.4-5.763c1.474-.4,2.814-.938,3.887,1.072,1.206,2.412-.4,7.505,3.082,8.577,2.68.8,5.361-.938,7.1-3.082,0,2.412,1.206,4.423,6.165,2.412-.4-.938-.134-3.082.4-5.763.268-1.34.938-4.557,2.278-5.9,1.608-1.742,2.546-1.34,2.278.4s-.67,3.485-.8,4.557c-.268,2.01-2.68,9.918,5.763,6.567-.536-1.072,0-3.887.536-6.969a9.841,9.841,0,0,1,2.01-4.691c1.608-1.742,2.948-1.34,2.814.4s-.536,3.619-.67,4.691c-.268,2.01-1.072,6.835,3.351,7.371,2.814.268,5.763-1.742,7.907-3.753a3.694,3.694,0,0,0,3.485,3.753c2.546.268,5.361-1.474,7.371-3.351-.4,2.278-.8,5.9-1.072,7.639h-.134c-22.65,0-79.207.938-95.423,1.206A6.812,6.812,0,0,0,12.7,69.227a3.729,3.729,0,0,0,1.072,2.814s52.67-5.9,100.516-6.031h0c-.67,3.753-.536,6.031,0,7.505.938,3.082,5.227,8.175,10.454,6.165C134.391,76.062,128.628,61.722,119.917,61.722Zm2.412,13.67c-2.01.67-4.021-2.01-3.753-5.495.134-.938.268-2.144.4-3.485C124.608,66.412,125.412,74.32,122.329,75.392Z" transform="translate(-9.478 -22.243)" fill="#fff"/>
    </g>
  </g>
</svg>
