<svg xmlns="http://www.w3.org/2000/svg" xmlns:xlink="http://www.w3.org/1999/xlink" width="240" height="108" viewBox="0 0 240 108">
  <defs>
    <clipPath id="clip-path">
      <rect id="Rectangle_7758" data-name="Rectangle 7758" width="170" height="38.354" fill="#fff"/>
    </clipPath>
    <clipPath id="clip-Artboard_11">
      <rect width="240" height="108"/>
    </clipPath>
  </defs>
  <g id="Artboard_11" data-name="Artboard – 11" clip-path="url(#clip-Artboard_11)">
    <g id="Logo_Gradient_1500x" transform="translate(35 34.859)" clip-path="url(#clip-path)">
      <path id="Path_116347" data-name="Path 116347" d="M40.573,6.4q-19.092,0-38.185-.012A2.165,2.165,0,0,0,.02,8.115c0,.007-.013.013-.02.019v9.584c.07-.073.144-.143.211-.219.33-.375.631-.779.99-1.124a8.624,8.624,0,0,1,6.221-2.426q12.086.005,24.172,0a8.113,8.113,0,0,0,7.177-3.958c.648-1.006,1.261-2.032,1.89-3.05.1-.165.2-.333.324-.541h-.411Z" transform="translate(0.515 2.937)" fill="#fff"/>
      <path id="Path_116348" data-name="Path 116348" d="M10.477,13.818a10.746,10.746,0,0,0-1.279.076,7.382,7.382,0,0,0-6.3,5.809A10.053,10.053,0,0,0,2.736,21.3c-.026.814-.007,1.629-.007,2.478h.392q11.5,0,23,0a2.637,2.637,0,0,0,2.4-1.351L33.581,14.1c.047-.077.088-.157.157-.282h-.376q-11.442,0-22.885,0Z" transform="translate(1.563 5.798)" fill="#fff"/>
      <path id="Path_116349" data-name="Path 116349" d="M128.17,15.243a9.925,9.925,0,0,0-6.145-8.317,12.559,12.559,0,0,0-7.458-.791,10.259,10.259,0,0,0-7.525,5.218,10.849,10.849,0,0,0-1.206,7.008,9.833,9.833,0,0,0,5.717,7.9,12.672,12.672,0,0,0,9.818.495,10.018,10.018,0,0,0,6.314-5.908c.036-.088.058-.182.089-.281a.991.991,0,0,0-.123-.02c-2.044,0-4.09,0-6.136.005a.4.4,0,0,0-.273.145,3.933,3.933,0,0,1-1.521,1.206,6.134,6.134,0,0,1-5.392-.112,4.426,4.426,0,0,1-2.234-3.271h15.987c.029-.2.061-.375.079-.552.04-.4.075-.794.112-1.191v-.508C128.239,15.927,128.213,15.584,128.17,15.243Zm-15.905-.8a4.653,4.653,0,0,1,4.658-3.5c2.536-.037,4.342,1.259,4.843,3.5Z" transform="translate(41.211 2.751)" fill="#fff"/>
      <path id="Path_116350" data-name="Path 116350" d="M111.014,6.858V6.55c-1.082,0-2.118,0-3.155,0a1.733,1.733,0,0,0-1.7,1.09c-.12.263-.245.522-.378.806-.1-.08-.187-.139-.266-.2a9.448,9.448,0,0,0-2.354-1.415,11.9,11.9,0,0,0-6.936-.654,9.427,9.427,0,0,0-7.148,5.417,10.628,10.628,0,0,0-.779,6.443,9.217,9.217,0,0,0,4.38,6.588A11.257,11.257,0,0,0,98.9,26.21a10.7,10.7,0,0,0,5.679-1.6.87.87,0,0,1,.157-.038c-.061.709-.068,1.4-.189,2.063a3.691,3.691,0,0,1-2.53,3.037,7.605,7.605,0,0,1-4.079.195,3.77,3.77,0,0,1-2.668-1.8.433.433,0,0,0-.324-.14c-2.007-.008-4.015-.006-6.022-.006h-.276a1.133,1.133,0,0,0,.012.124,8.309,8.309,0,0,0,4.105,5.4,12.194,12.194,0,0,0,5.075,1.559,16.212,16.212,0,0,0,5.887-.377,9.206,9.206,0,0,0,5.6-3.978,11.455,11.455,0,0,0,1.673-6.232c.019-5.853.007-11.707.007-17.56Zm-6.138,9.885a4.4,4.4,0,0,1-3.173,3.729,15.364,15.364,0,0,1-2.023.405l-.017-.081a5.383,5.383,0,0,1-3.62-1.2,4.593,4.593,0,0,1,.652-7.488,6.167,6.167,0,0,1,6.348.261A4.389,4.389,0,0,1,104.876,16.743Z" transform="translate(34.438 2.764)" fill="#fff"/>
      <path id="Path_116351" data-name="Path 116351" d="M54.716,13.925a9.667,9.667,0,0,0-5-6.755,11.071,11.071,0,0,0-5.947-1.231,10.258,10.258,0,0,0-5.128,1.6c-.457.3-.881.642-1.335.976-.139-.3-.279-.607-.424-.911a1.716,1.716,0,0,0-1.648-1.046c-.513,0-1.027,0-1.541,0H32.062v27.9h6.322V25.671c.173.109.3.19.425.266s.276.167.417.243A11.069,11.069,0,0,0,46.3,27.312a9.573,9.573,0,0,0,7.742-5.8A11.875,11.875,0,0,0,54.716,13.925Zm-10.547,7.9c-.272.039-.549.038-.824.055A5.191,5.191,0,0,1,42.5,11.543,5.439,5.439,0,0,1,48,13.96,5.184,5.184,0,0,1,44.169,21.827Z" transform="translate(12.859 2.758)" fill="#fff"/>
      <path id="Path_116352" data-name="Path 116352" d="M92.862,26.805H86.582v-.361q0-5.3,0-10.6a5.952,5.952,0,0,0-.441-2.449,3.185,3.185,0,0,0-3.2-1.906,4,4,0,0,0-3.923,3.473,10,10,0,0,0-.221,2.065c-.023,3.138-.01,6.275-.01,9.413V26.8H72.518V6.569c.108,0,.2-.012.293-.012h2.854a1.727,1.727,0,0,1,1.693,1.064c.187.4.376.8.591,1.253a13.417,13.417,0,0,1,.973-.986,8.72,8.72,0,0,1,5.155-1.942,9.726,9.726,0,0,1,4.122.533,6.84,6.84,0,0,1,4.262,4.873,11.127,11.127,0,0,1,.4,3.006c.01,4.039,0,8.078,0,12.118v.33Z" transform="translate(28.434 2.758)" fill="#fff"/>
      <path id="Path_116353" data-name="Path 116353" d="M62.368,6.394v.344c0,3.551-.01,7.1.01,10.654A7.6,7.6,0,0,0,62.6,19.2a3.189,3.189,0,0,0,3.566,2.483,3.69,3.69,0,0,0,3.175-2.238,6.73,6.73,0,0,0,.632-3.006q.005-4.848,0-9.7v-.35h6.28V26.614c-.089.006-.171.017-.253.017q-1.456,0-2.911,0a1.723,1.723,0,0,1-1.672-1.055c-.189-.4-.375-.8-.574-1.224-.066.061-.122.106-.169.159a8.345,8.345,0,0,1-5.347,2.671,9.661,9.661,0,0,1-4.5-.41,6.7,6.7,0,0,1-4.272-4.683,11.133,11.133,0,0,1-.47-3.25q-.009-6.087,0-12.176V6.394h6.279Z" transform="translate(22.109 2.941)" fill="#fff"/>
      <path id="Path_116354" data-name="Path 116354" d="M49.714,0h6.243V29.076H49.714Z" transform="translate(19.655 0.479)" fill="#fff"/>
    </g>
  </g>
</svg>
