<svg xmlns="http://www.w3.org/2000/svg" xmlns:xlink="http://www.w3.org/1999/xlink" width="240" height="108" viewBox="0 0 240 108">
  <defs>
    <clipPath id="clip-Artboard_20">
      <rect width="240" height="108"/>
    </clipPath>
  </defs>
  <g id="Artboard_20" data-name="Artboard – 20" clip-path="url(#clip-Artboard_20)">
    <g id="UofT_Centered" transform="translate(21.582 30.057)">
      <path id="University_of_Toronto_Mark_Stacked" d="M202.744,205.177a12.708,12.708,0,0,1,12.9,12.841,13.416,13.416,0,0,1-13.279,13.1c-7.293,0-12.524-5.924-12.524-13.1a13.213,13.213,0,0,1,12.906-12.841m1.312,24.313c4.677,0,7.6-4.612,7.6-9.042,0-7.043-4.053-13.654-10.1-13.654-4.8,0-7.729,4.24-7.729,9.165-.009,6.484,3.732,13.532,10.218,13.532Zm-25.938-23.752h-5.33c-2.306,0-4.053,0-5.487-.062-1.31-.062-1.624-.374-1.8-.623h-.686c-.125.312-1.8,4.8-1.866,5.052l.812.5c.812-2.182,1.745-3.241,6.171-3.241a33.777,33.777,0,0,1,3.556.186c.247,3.178.312,6.294.312,9.472,0,2-.061,9.458-.312,11.084-.127.751-.5,1.1-2.556,1.479-.875.125-1.435.185-1.933.25l.189,1.008c.666-.061,1.465-.1,2.458-.166s2.216-.1,4.022-.1c.686,0,1.81-.046,2.869.018s2,.066,3.3.125l.125-1.039a11.253,11.253,0,0,1-1.186-.133,4.633,4.633,0,0,1-2.244-.747c-.812-.936-.812-7.657-.812-9.458,0-1.559.25-9.412.25-11.224,0-.75.251-.75,2.494-.75l.076.011c1-.034,1.286-.011,1.663-.011,4.427,0,4.549,1.066,5.357,3.241l.812-.5c-.062-.251-.936-4.737-1.058-5.052h-.685c-.189.25-.5.561-1.81.623-1.7.075-3.722.062-5.754.062h-.934Zm-41.069-.062c-1,.062-1.751.062-3,.062a18.521,18.521,0,0,1-1.866-.062c-.623-.062-.722-.055-1.321-.124v1.066c3.615.685,3.937,1.247,3.812,8.48l-.014,4.427c0,1.682-.115,6.67-.3,8.107-.186,1.624-.871,1.745-1.8,1.933-.5.125-1.066.251-1.435.312v.936c.936,0,1.866-.061,2.807-.124s2.188-.124,3.118-.124,1.931.061,2.807.124a10.685,10.685,0,0,1,1.744.124v-1.071c-4.93-.871-4.93-1.559-4.862-5.729V213.474l.061-2c-.014-.015-.013.032,18.339,19.454h1.28c-.124-2.059-.124-7.356-.124-9.665,0-3.3-.023-11.826.117-12.888.213-1.624,2.376-1.758,3.562-1.758v-.936c-2.68,0-4.15.064-5.33-.061a24.386,24.386,0,0,0-2.616-.185,13.052,13.052,0,0,0-1.559,0l-.185.936c4.176.251,4.081.623,4.081,10.03,0,1.121-.04,6.624-.04,7.684Zm-22.577-.5a12.706,12.706,0,0,1,12.9,12.841,13.416,13.416,0,0,1-13.279,13.1c-7.293,0-12.524-5.924-12.524-13.1a13.212,13.212,0,0,1,12.9-12.841Zm1.31,24.313c4.677,0,7.606-4.612,7.606-9.042,0-7.043-4.053-13.654-10.1-13.654-4.8,0-7.729,4.24-7.729,9.165,0,6.484,3.741,13.532,10.223,13.532ZM74.9,205.553c.812.061,1.559.124,2.369.124.747.062,1.559.062,2.306.062.561,0,2-.125,3.428-.25s2.494-.125,3.365-.125c5.3,0,8.66,2.866,8.66,6.731,0,3.491-3.18,5.612-5.674,6.236,5.173,7.483,6.108,8.6,8.107,10.472a6.506,6.506,0,0,0,3.741,1.8l-.064.936a11.073,11.073,0,0,1-7.541-2.556c-3.8-2.992-7.544-8.914-8.229-10.161-1.066,0-1.5,0-3.3-.125v3.614c0,1.624-.062,5.238.438,6.236.312.561,2.182,1.121,3.428,1.495l.062.936a38.86,38.86,0,0,0-5.486-.438c-.874,0-4.738.247-5.548.312l-.186-.747c.374-.062,2.616-.561,3.179-1.624.436-.936.373-6.173.373-7.849v-5.977c0-7.729-.373-7.861-3.491-8.041Zm7.231,11.721a19.221,19.221,0,0,0,2.68.124c.936,0,6.171,0,6.171-4.989a5.729,5.729,0,0,0-6.109-5.673c-2.616,0-2.616.312-2.68,4.55Zm-24.561-12.1a12.707,12.707,0,0,1,12.9,12.841,13.416,13.416,0,0,1-13.278,13.1c-7.294,0-12.524-5.924-12.524-13.1a13.211,13.211,0,0,1,12.9-12.841Zm1.31,24.313c4.677,0,7.6-4.612,7.6-9.042,0-7.043-4.053-13.654-10.1-13.654-4.8,0-7.729,4.24-7.729,9.165-.006,6.484,3.737,13.532,10.218,13.532ZM32.367,205.738H27.023c-2.306,0-4.053,0-5.486-.062-1.31-.062-1.624-.374-1.8-.623h-.685c-.125.312-1.8,4.8-1.866,5.052l.812.5c.812-2.182,1.745-3.241,6.171-3.241a33.726,33.726,0,0,1,3.553.186c.251,3.178.312,6.294.312,9.472,0,2-.061,9.458-.312,11.084-.125.751-.5,1.1-2.556,1.479-.873.125-1.433.185-1.932.25l.186,1.008c.666-.061,1.465-.1,2.46-.166s2.215-.1,4.023-.1c.686,0,1.8-.046,2.868.018s2,.066,3.3.125l.125-1.039a11.231,11.231,0,0,1-1.184-.133,4.635,4.635,0,0,1-2.244-.747c-.812-.936-.812-7.657-.812-9.458,0-1.559.249-9.412.249-11.224,0-.75.249-.75,2.494-.75l.076.011c1-.034,1.285-.011,1.663-.011,4.427,0,4.55,1.066,5.36,3.241l.812-.5c-.064-.251-.936-4.737-1.058-5.052h-.685c-.189.25-.5.561-1.8.623-1.7.075-3.719.062-5.756.062h-.943Zm161.053-22a27.845,27.845,0,0,1-3.78.164l-1.894-.028-1.952-.055-.647.039-.506.052v.473h.09c.492.025.951.073,1.156.369.288.436.318.887.318,4.813a40.784,40.784,0,0,1-.223,4.253c-.1.429-.7.581-1.151.661l-.069.014-.042.59.1-.008c1.1-.084,2.3-.109,2.616-.109l.969.027,1.8.09v-.647l-.133-.013c-1.28-.122-1.714-.344-1.844-.51a3.782,3.782,0,0,1-.187-1.534c0-.207,0-.416.013-.615,0,0,.043-1.663.055-2.049l.914-.049a9.057,9.057,0,0,1,2.581.374c.176.057.327.416.4.911l.011.081h.556l.008-.09a30.811,30.811,0,0,0,.056-3.152v-.09h-.586l-.014.077c-.133.812-.19,1.153-2.361,1.153a10.167,10.167,0,0,1-1.48-.09h-.048c-.014-.2-.022-.408-.022-.637,0-.251,0-.52.014-.792,0,0,.033-2.309.039-2.665.631-.075,1.173-.1,1.332-.1a5.11,5.11,0,0,1,2.706.554,1.871,1.871,0,0,1,.581,1.1l.018.076.618-.039-.009-.09c-.014-.18.023-.788.059-1.326l.06-1.181Zm-16.908-.081a5.729,5.729,0,0,1,5.864,5.729,6.014,6.014,0,0,1-6.028,5.834,5.705,5.705,0,0,1-5.693-5.834,5.947,5.947,0,0,1,5.864-5.729Zm.582,10.659a3.644,3.644,0,0,0,3.307-3.864c0-2.9-1.653-5.894-4.42-5.894a3.576,3.576,0,0,0-3.364,3.925c0,2.866,1.675,5.835,4.484,5.835Zm-21.418-10.427v.554h.133c.557.025,1.322.061,1.322.506,0,.133-.236.786-2.338,3.836a27.774,27.774,0,0,1-2.91-4c0-.124,0-.266,1.274-.289h.09v-.651l-1.058.023-2.044.034-2.212-.029v.6h.09a1.9,1.9,0,0,1,1.143.259,34.219,34.219,0,0,1,3.148,3.659c0,.011.957,1.237,1.052,1.353.057.79.109,1.669.109,2.753,0,1.668,0,2.016-1.559,2.066h-.084l-.042.559h.09c.227.015.945-.037,1.635-.09l1.187-.075.9.043.18.011,1.217.06v-.56l-.085-.011c-1.523-.133-1.539-.327-1.559-.623v-.115c-.036-.687-.053-1.455-.053-2.287,0-.623.013-1.291.03-1.992l2.188-3.338c.7-1.066,1.083-1.654,2.573-1.682h.09v-.642l-.081-.006c-.2-.018-.8.015-1.332.048l-.717.034-.849-.047-.6-.036-.832-.028h-.1Zm-9.86-.312h-.351l-.027.037c-.059.074-.16.207-.74.236l-2.24.027h-3.13l-2.447-.027c-.578-.027-.684-.162-.74-.236l-.028-.037H135.7l-.024.057c-.046.115-.812,2.106-.84,2.226l-.014.068.52.312.037-.1c.35-.925.727-1.36,2.673-1.36a14.918,14.918,0,0,1,1.5.075c.116,1.51.133,2.965.133,4.068,0,1.059-.033,4.175-.133,4.845-.042.242-.115.4-1.066.57l-.691.09-.266.032.117.623.923-.062.259-.015,1.791-.043h.287l.992.011.756.029.8.028.014-.084.067-.552-.5-.052-.116-.015a1.9,1.9,0,0,1-.951-.3c-.123-.133-.335-.86-.335-4.081l.055-2.3.056-2.616c0-.223,0-.235,1.025-.235h.779c1.8,0,1.941.378,2.25,1.2l.1.266.513-.312-.123-.594c-.18-.875-.329-1.607-.369-1.7l-.023-.057Zm-18.621.339v.554h.09c1.455.055,1.7.351,1.813.653a32.684,32.684,0,0,1,.245,4.832v.2a13.8,13.8,0,0,1-.3,3.719c-.1.171-.473.474-1.905.582h-.09v.567l1.766-.059h1.619l2.693.085-.011-.1-.032-.525H133c-1.173,0-1.559-.022-1.7-.481a22.512,22.512,0,0,1-.1-3.143c0-4.346.025-5.494.266-5.913.3-.484,1.332-.422,1.639-.391l.1.011v-.666h-1.319l-1.866.055-1.229-.036-.533-.019-.973-.027h-.09v.09Zm-9.874,2.977c0,1.894,1.619,2.562,2.8,3.047l.1.04c2.028.822,2.954,1.2,2.954,2.6a1.767,1.767,0,0,1-1.975,1.714,4.06,4.06,0,0,1-2.589-.936,2.858,2.858,0,0,1-.861-1.587l-.014-.073h-.671l.037.119a8.328,8.328,0,0,1,.473,3.17v.09l.541.037.027-.062c.025-.064.119-.266.249-.266a4.679,4.679,0,0,1,.681.142l.076.02.164.048a4.131,4.131,0,0,0,1.364.2c2.722,0,4.19-1.654,4.19-3.208,0-2.188-2.158-3.041-3.582-3.609-1.353-.52-2.383-1-2.383-2.106a1.866,1.866,0,0,1,2.075-1.822,3.042,3.042,0,0,1,2.1.845,2.412,2.412,0,0,1,.666,1.385l.018.072.079.023h.493l-.145-1.463a6.108,6.108,0,0,1,.162-1.317l.023-.1-.5-.075-.361.242a7.782,7.782,0,0,0-2.24-.349c-2.337,0-3.969,1.308-3.969,3.18Zm-7.858-3.157c2.336,0,3.969,1.252,3.969,3.044a3.123,3.123,0,0,1-2.48,2.784,23.766,23.766,0,0,0,3.539,4.475,2.872,2.872,0,0,0,1.614.767h.09l-.04.592h-.09a5.1,5.1,0,0,1-3.428-1.143,18.505,18.505,0,0,1-3.675-4.438l-1.332-.048v2a7.638,7.638,0,0,0,.185,2.182,4.141,4.141,0,0,0,1.478.613l.061.019.04.594-.114-.019a17.473,17.473,0,0,0-2.436-.19c-.382,0-2.094.1-2.475.133h-.076l-.133-.5.1-.015c.231-.037,1.138-.266,1.353-.658a16.8,16.8,0,0,0,.157-3.148v-2.88c0-3.345-.133-3.354-1.474-3.428h-.09l.04-.651.165.013.987.049,1.025.028c.247,0,.9-.056,1.523-.109h0Zm-1.8,5.232a9.712,9.712,0,0,0,1.106.046c.992,0,2.665-.266,2.665-2.093a2.436,2.436,0,0,0-2.64-2.4c-1.078,0-1.078.036-1.107,1.9,0,.005-.023,2.391-.025,2.543Zm-6.593-5.176c-1.369.081-3.525.109-4.956.109-.869,0-3.042-.055-3.846-.081h-.09v.557l.077.013c.945.164,1,.186,1.066.4a21.908,21.908,0,0,1,.218,4.646,37.551,37.551,0,0,1-.25,4.493c-.071.378-.547.5-1.285.581l-.09.011.08.623.09-.011a43.486,43.486,0,0,1,4.4-.162l4.456.055.041-.067a5.967,5.967,0,0,0,.832-2.72l.014-.1-.533-.04-.025.066c-.378,1.025-1.13,2.075-3.846,2.075a4.448,4.448,0,0,1-1.894-.331,15.4,15.4,0,0,1-.133-2.148s-.022-1.663-.027-2.046a12.52,12.52,0,0,1,1.663-.1c2.182,0,2.346.17,2.642,1.512l.014.071h.533v-.09c-.028-1.465-.027-1.819.055-3.355v-.1h-.586l-.018.069c-.214.819-.392.978-.7,1.026a20.207,20.207,0,0,1-3.518.115c0-.143-.053-1.465-.053-1.465a18.824,18.824,0,0,1,.185-2.6,16.139,16.139,0,0,1,2.148-.208c1.233,0,1.959.161,2.281.505a1.534,1.534,0,0,1,.245,1.173v.09l.631.077v-.1c0-.118.074-.563.133-.889l.066-.416a6.6,6.6,0,0,0,.09-1.133v-.1Zm-24.141.133.033.486.075.011c1.5.186,1.559.194,2.773,2.68l2.509,5.111.022.047a24.447,24.447,0,0,1,1.284,3l.019.068h.554l.022-.062a23.788,23.788,0,0,1,1.529-3.623l2.706-5.3c.623-1.247.891-1.565,2.109-1.81l.075-.014v-.608h-.093c-.691.027-1.365.027-2.056,0l-2.122-.057v.081l-.034.576h.1c.559,0,1.3.07,1.3.666a3.988,3.988,0,0,1-.4,1.237l-.042.09c-.553,1.247-.9,1.929-1.272,2.654l-1.235,2.531-.29.636a54.307,54.307,0,0,1-3.436-7.512c0-.133.03-.151.942-.266l.284-.036V183.9H79.648c-.642,0-1.941-.029-2.616-.081l-.1-.009Zm-7.526-.006v.554h.09c1.455.053,1.7.351,1.812.652a32.781,32.781,0,0,1,.245,4.832v.2a13.754,13.754,0,0,1-.294,3.719c-.1.171-.473.474-1.907.582h-.082v.567l1.767-.059h1.618l2.694.085-.011-.1-.033-.525h-.09c-1.173,0-1.559-.022-1.7-.481a22.571,22.571,0,0,1-.1-3.141c0-4.346.027-5.494.266-5.913.3-.484,1.332-.422,1.64-.391l.1.011v-.666H74.092l-1.866.055L71,183.855l-.533-.019-.972-.027h-.1v.09Zm-6.405-.185h-.071v.07l-.1.52h.1c2.153.127,1.815.173,1.871,4.625,0,0,.028,2.692.022,3-.151-.159-7.729-8.074-7.729-8.074l-.028-.034-1.241.028-.832-.028-.07-.006-.754-.055.013.1v.533l.07.014c1.549.288,1.8.458,1.751,3.623L55.963,190c0,.722-.084,2.919-.169,3.54s-.318.688-.727.767l-.722.152v.584l2.6-.114,1.247.055.87.06.008-.1V194.4l-.077-.014c-2.132-.369-2.125-.6-2.1-2.42l.056-4.619s.013-.4.022-.656c.416.433,8.077,8.371,8.029,8.394l.025.033.727-.014-.006-.1c-.055-.9-.055-3.221-.055-4.24,0-1.506.067-5.017.143-5.45.1-.751.741-.936,1.36-.936h.09v-.6H67.2c-1.2,0-1.8.079-2.333.024l-.354-.04-.825-.049Zm-20.253.109-.647.013c-.76,0-2.287.027-2.518.055l-.09.011.039.613h.09c.727,0,.975,0,1.143.12a7.067,7.067,0,0,1,.379,3.118L41,191.409c0,2.51,1.6,3.837,4.635,3.837,4.8,0,5.064-2.568,5.136-7.909l.028-1.614v-.068c.025-.78.034-1.105,1.332-1.18h.081l.042-.623-.247.015-1.941.046-1.495-.037-.666-.022v.654H48a2.165,2.165,0,0,1,1.353.271,5.563,5.563,0,0,1,.446,2.584v.984c0,3.7-.249,5.948-3.7,5.948-3.139,0-3.139-2.5-3.139-3.705v-2.075c0-3.864.142-3.879,1.866-4.034l.084-.008v-.638h-.09c-.436-.032-1.4-.011-2.1,0Z" transform="translate(-17.183 -183.577)" fill="#fff"/>
    </g>
  </g>
</svg>
