<svg xmlns="http://www.w3.org/2000/svg" xmlns:xlink="http://www.w3.org/1999/xlink" width="240" height="108" viewBox="0 0 240 108">
  <defs>
    <clipPath id="clip-Artboard_9">
      <rect width="240" height="108"/>
    </clipPath>
  </defs>
  <g id="Artboard_9" data-name="Artboard – 9" clip-path="url(#clip-Artboard_9)">
    <path id="Path_116254" data-name="Path 116254" d="M16.553,4.778h2.322c-.05.578-2.149,7.063-2.41,7.91L14.6,18.56c-.2.578-.491,1.474-.627,2.076l-.4-.884c-.121-.321-.258-.643-.4-1.02L7.648,4.889c.482,0,.946,0,1.425.012,1.386.025,1.02.393,1.02-4.778H-1V4.542c.086.4.332.369.9.369.43,0,.871-.01,1.3-.01.246.455.443,1.044.651,1.547.221.553.43,1.081.663,1.658L9.06,24.652c.5,1.265,2.371,5.712,2.6,6.694h4.519A32.514,32.514,0,0,0,17.328,28.1c2.221-6.682,4.74-13.512,6.939-20.157L25.1,5.429c.258-.824-.037-.651,2.309-.651V0H16.577V4.778ZM82.34,9.163H78.082c-.295,0-.393.086-.393.393v4.778h4.643v12.26c0,4.078,1.527,5.553,5.294,5.553a23,23,0,0,0,4.258-.516v-4.9c-2.383.2-3.489.651-3.489-1.425V14.336h3.869V9.557c0-.295-.086-.393-.393-.393H88.384V1.683H82.318V9.159Zm41.408,7.1c0,5.982,6.081,6.461,10.6,7.21,1.474.246,3.722.614,3.722,2.211,0,2.346-5.393,2.383-7.392.553a6.13,6.13,0,0,1-.909-1.277c-.983-1.768.723-1.326-5.761-1.326v8.131H129.3V30.6a10.783,10.783,0,0,0,2.309,1.044c4.471,1.386,12.013.482,12.013-6.854,0-3.636-2.371-5.651-5.243-6.5-3.145-.922-9.079-.9-9.079-2.788,0-2.936,6.2-2.764,7.333.148.651,1.658-.848,1.277,5.172,1.277.295,0,.393-.086.393-.393V9.569c0-.295-.086-.393-.393-.393-4.926,0-4.643-.344-4.643.909-1.29-.295-1.3-1.29-5.553-1.29-4.41,0-7.874,2.9-7.874,7.481ZM95.754,9.556v4.778h2.2v9.8c0,5.454,1.818,8,7.358,8a10.7,10.7,0,0,0,3.955-.946A26.635,26.635,0,0,0,112.4,29.3c0,1.228-.233,2.457.393,2.457h7.482c.295,0,.393-.086.393-.393V26.582h-2.321V9.557c0-.295-.086-.393-.393-.393h-8c-.295,0-.393.086-.393.393v4.778h2.58v7.479a5,5,0,0,1-5.294,5.159c-3,0-2.838-2.049-2.838-5.675V9.176H96.138c-.295,0-.393.086-.393.393Zm-58.7,4.385a7.159,7.159,0,0,1,3.82,1.216c1.843,1.228,1.607,1.868,2.113,2.923H31.5a9.582,9.582,0,0,1,.774-1.547,5.642,5.642,0,0,1,4.778-2.58ZM25.188,19.874c0,3.231.381,4.938,2.063,7.481a11.881,11.881,0,0,0,9.421,4.778c3.083,0,5.905-.542,8.07-2.113a10.391,10.391,0,0,0,2.322-2.2,6.588,6.588,0,0,0,.872-1.446,11.311,11.311,0,0,0,.6-1.72h-4.9c-2.284-.025-.614.5-3.181,1.72-2.542,1.216-6.571.688-8.276-2a4.5,4.5,0,0,1-.663-2.039H49.055c0-5.5-1.879-10.257-6.4-12.431-4.791-2.3-11.8-1.205-15.366,3.562a11.811,11.811,0,0,0-2.1,6.413Zm34.959-8.131V9.159H52.269c-.295,0-.393.086-.393.393V14.33H54.2V26.594H51.745v4.778c0,.295.086.393.393.393H62.972V26.607H60.26V17.061c0-.482,1.72-1.818,2.162-2.089,2.617-1.645,6.347-1.425,6.347,1.965v9.681H66.311V31.4c0,.295.086.393.393.393H76.9c.295,0,.393-.086.393-.393V26.618H74.838V15.526A6.276,6.276,0,0,0,70.8,9.507c-3.022-1.412-6.547-.516-9.176,1.192-.578.381-.983.737-1.5,1.081Z" transform="translate(49 38.629)" fill="#fff" fill-rule="evenodd"/>
  </g>
</svg>
